<svg xmlns="http://www.w3.org/2000/svg" width="359.64" height="26.329" viewBox="0 0 359.64 26.329"><g transform="translate(1066.34 385.221) rotate(180)"><path d="M0,21.658V0H359.639V24.032c0,6.008-19.052-13.758-19.052-13.758L334.182,7.6l-8.672,3.16-16.11,14.4-9.639-3.5L284.91,7.607h-5.619L263.244,22.185l-6.163,1.6-7.626-1.6L234.644,7.945h-9.4L209.613,23.59l-11.038-.254L183.589,7.945h-8.873l-14.9,14.649-12.683.36L132.074,7.945l-9.887.519-11.8,13.178-9.506,2.687L89.726,16.644l-8.873-8.7H73.181l-6.057,4.11-7.3,8.231L51.48,24.75,43.8,21.643,31.571,9.561,23.949,7.943l-5.726,2.892L4.584,24.327Z" transform="translate(1066.34 385.221) rotate(180)" fill="#fff"/><path d="M15.7,11.644c3.568-4.075,5.709-6.987,9.99-6.987s6.422,2.911,9.99,6.987c3.568,4.658,7.849,9.315,15.7,9.315s12.131-4.658,15.7-9.315c3.568-4.075,5.709-6.987,9.99-6.987s6.422,2.911,9.99,6.987c3.568,4.658,7.849,9.315,15.7,9.315s12.131-4.658,15.7-9.315c3.568-4.075,5.709-6.987,9.99-6.987s6.422,2.911,9.99,6.987c3.568,4.658,7.849,9.315,15.7,9.315s12.131-4.658,15.7-9.315c3.568-4.075,5.709-6.987,9.99-6.987s6.422,2.911,9.99,6.987c3.568,4.658,7.849,9.315,15.7,9.315s12.131-4.658,15.7-9.315c3.568-4.075,5.709-6.987,9.99-6.987s6.422,2.911,9.99,6.987c3.568,4.658,7.849,9.315,15.7,9.315s12.131-4.658,15.7-9.315c3.568-4.075,5.709-6.987,9.99-6.987s6.422,2.911,9.99,6.987c3.568,4.658,7.849,9.315,15.7,9.315s12.131-4.658,15.7-9.315c3.568-4.075,5.709-6.987,9.99-6.987s6.422,2.911,9.99,6.987c3.568,4.658,7.849,9.315,15.7,9.315V16.3c-4.281,0-6.422-2.911-9.99-6.987C346.082,4.658,341.8,0,333.952,0s-12.131,4.658-15.7,9.315c-3.568,4.075-5.709,6.987-9.99,6.987s-6.422-2.911-9.99-6.987C294.705,4.658,290.424,0,282.574,0s-12.131,4.658-15.7,9.315c-3.568,4.075-5.709,6.987-9.99,6.987s-6.422-2.911-9.99-6.987C243.328,4.658,239.047,0,231.2,0s-12.131,4.658-15.7,9.315c-3.568,4.075-5.709,6.987-9.99,6.987s-6.422-2.911-9.99-6.987C191.951,4.658,187.669,0,179.82,0s-12.131,4.658-15.7,9.315c-3.568,4.075-5.709,6.987-9.99,6.987s-6.422-2.911-9.99-6.987C140.574,4.658,136.292,0,128.443,0s-12.131,4.658-15.7,9.315c-3.568,4.075-5.709,6.987-9.99,6.987s-6.422-2.911-9.99-6.987C89.2,4.658,84.915,0,77.066,0s-12.131,4.658-15.7,9.315C57.8,13.391,55.659,16.3,51.377,16.3s-6.422-2.911-9.99-6.987C37.819,4.658,33.538,0,25.689,0S13.558,4.658,9.99,9.315C6.422,13.391,4.281,16.3,0,16.3V20.96C7.849,20.96,12.131,16.3,15.7,11.644Z" transform="translate(1066.34 379.852) rotate(180)" fill="#ff6f91"/></g></svg>