<svg xmlns="http://www.w3.org/2000/svg" width="156.515" height="121.131" viewBox="0 0 156.515 121.131"><g transform="translate(-1083.837 -648.057)"><path d="M430.795,97.714s-77.88-4.915-68.7,52.223c0,0-1.8,10.1,6.925,14.67,0,0,.127-4.217,7.988-2.785a33.935,33.935,0,0,0,8.454.413,17.113,17.113,0,0,0,10.345-4.462h0s21.894-9.417,30.4-46.933c0,0,6.3-8.155,6.043-10.264l-13.131,5.877s4.478,9.925.953,18.173c0,0-.432-17.816-2.951-17.383-.521,0-6.837,3.426-6.837,3.426s7.735,17.29,1.907,29.85c0,0,2.213-21.3-4.318-28.586l-9.245,5.648s8.995,17.853,2.913,32.43c0,0,1.565-22.355-4.856-31.054l-8.383,6.834s8.471,17.61,3.31,29.7c0,0-.683-26.026-5.128-27.986,0,0-7.338,6.762-8.454,9.55,0,0,5.812,12.768,2.213,19.51,0,0-2.213-17.325-4.029-17.4,0,0-7.3,11.489-8.06,19.342,0,0,.306-11.694,6.3-20.453a21.8,21.8,0,0,0-11.19,6.066s1.133-8.118,12.99-8.814c0,0,6.027-8.721,7.644-9.247,0,0-11.783-1.036-18.942,2.277,0,0,6.3-7.645,21.1-4.179l8.292-7.062s-15.525-2.222-22.109.225c0,0,7.573-6.762,24.321-1.884l8.995-5.648s-13.222-2.975-21.119-1.884c0,0,8.33-4.708,23.765.4l6.44-3.031s-9.7-2-12.593-2.318-2.985-1.13-2.985-1.13a32.123,32.123,0,0,1,18.223,2.129S431.026,98.524,430.795,97.714Z" transform="matrix(0.485, 0.875, -0.875, 0.485, 1052.625, 311.324)" fill="#f9a826"/><path d="M69.455,66.893S-8.424,71.808.752,14.67c0,0-1.8-10.1,6.925-14.67,0,0,.127,4.217,7.988,2.785a33.935,33.935,0,0,1,8.454-.413A17.113,17.113,0,0,1,34.464,6.834h0s21.894,9.417,30.4,46.933c0,0,6.3,8.154,6.043,10.264L57.78,58.154s4.478-9.925.953-18.173c0,0-.432,17.816-2.951,17.383-.521,0-6.837-3.426-6.837-3.426s7.735-17.29,1.907-29.85c0,0,2.213,21.3-4.318,28.586l-9.245-5.648s8.995-17.853,2.913-32.43c0,0,1.565,22.355-4.856,31.054l-8.383-6.834s8.471-17.61,3.31-29.7c0,0-.683,26.026-5.128,27.986,0,0-7.338-6.762-8.454-9.55,0,0,5.812-12.768,2.213-19.51,0,0-2.213,17.325-4.029,17.4,0,0-7.3-11.489-8.06-19.342,0,0,.306,11.694,6.3,20.453A21.8,21.8,0,0,1,1.92,20.488S3.053,28.607,14.91,29.3c0,0,6.027,8.721,7.644,9.247,0,0-11.783,1.036-18.942-2.277,0,0,6.3,7.645,21.1,4.179l8.292,7.062S17.481,49.735,10.9,47.288c0,0,7.573,6.762,24.321,1.884l8.995,5.648S30.992,57.8,23.094,56.7c0,0,8.33,4.708,23.765-.4L53.3,59.34s-9.7,2-12.593,2.318-2.985,1.13-2.985,1.13a32.124,32.124,0,0,0,18.223-2.129S69.687,66.083,69.455,66.893Z" transform="matrix(0.326, 0.946, -0.946, 0.326, 1217.263, 648.057)" fill="#f9a826"/></g></svg>