<svg xmlns="http://www.w3.org/2000/svg" xmlns:xlink="http://www.w3.org/1999/xlink" width="580" height="512.112" viewBox="0 0 580 512.112"><defs><filter id="a" x="0" y="0" width="580" height="512.112" filterUnits="userSpaceOnUse"><feOffset dy="6" input="SourceAlpha"/><feGaussianBlur stdDeviation="6" result="b"/><feFlood flood-opacity="0.161"/><feComposite operator="in" in2="b"/><feComposite in="SourceGraphic"/></filter></defs><g transform="translate(-689.038 -117)"><g transform="matrix(1, 0, 0, 1, 689.04, 117)" filter="url(#a)"><path d="M213.446,467.285c87.867,26.427,142.731-6.719,273.031-96.3,115.887-74.356,0-404.027-94.3-348.933S201.016-21.848,72.859,4.58s-88.218,214.7,0,276.369S125.579,440.857,213.446,467.285Z" transform="translate(26.96 12)" fill="rgba(255,255,255,0.5)"/></g><g transform="translate(789.888 143.012)"><path d="M468.243,253.707c-4.257,4.323-24.087,8.8-24.087,8.8s4.862-20.618,9.12-24.941a10.689,10.689,0,0,1,3.525-2.383,10.312,10.312,0,0,1,8.229.134,10.762,10.762,0,0,1,3.452,2.5,11.325,11.325,0,0,1,2.275,3.69,11.741,11.741,0,0,1-.128,8.615,11.289,11.289,0,0,1-2.386,3.613Z" transform="translate(-47.981 -15.44)" fill="#f9a826"/><path d="M455.579,293.431c-5.816,1.21-24.786-6.326-24.786-6.326s14.774-14.538,20.609-15.748a10.369,10.369,0,0,1,7.915,1.812,11.3,11.3,0,0,1,4.455,7.084,11.683,11.683,0,0,1-1.538,8.328,10.755,10.755,0,0,1-6.656,4.835Z" transform="translate(-46.538 -17.864)" fill="#f9a826"/><path d="M410.57,336.683c-5.607-2.038-18.352-18.558-18.352-18.558s19.776-4.731,25.383-2.7a10.926,10.926,0,0,1,6.15,5.716,11.733,11.733,0,0,1,.488,8.593,11.1,11.1,0,0,1-5.46,6.439,10.3,10.3,0,0,1-8.209.51Z" transform="translate(-42.37 -20.744)" fill="#f9a826"/><path d="M368.231,361.542c-5.855-1.013-21.085-15.044-21.085-15.044s18.729-8.161,24.577-7.149a10.443,10.443,0,0,1,3.988,1.5,10.966,10.966,0,0,1,3.124,3,11.492,11.492,0,0,1,1.774,4.028,11.765,11.765,0,0,1,.15,4.432,11.588,11.588,0,0,1-1.5,4.148,11.067,11.067,0,0,1-2.915,3.219,10.522,10.522,0,0,1-3.877,1.789,10.28,10.28,0,0,1-4.237.081Z" transform="translate(-37.501 -22.348)" fill="#f9a826"/><path d="M412.259,270.2c0,6.215,10.745,24.232,10.745,24.232s10.744-18.011,10.744-24.218a11.521,11.521,0,0,0-3.147-7.953,10.407,10.407,0,0,0-15.195,0,11.521,11.521,0,0,0-3.147,7.953Z" transform="translate(-44.535 -17.058)" fill="#f9a826"/><path d="M363.446,299.7c1.773,5.926,17.17,19.761,17.17,19.761s5.11-20.555,3.357-26.481a11.419,11.419,0,0,0-2.01-3.857,10.868,10.868,0,0,0-3.266-2.757,10.317,10.317,0,0,0-8.2-.772,10.62,10.62,0,0,0-3.684,2.1,11.187,11.187,0,0,0-2.634,3.42,11.734,11.734,0,0,0-.737,8.582Z" transform="translate(-39.209 -18.779)" fill="#f9a826"/><path d="M318.87,375.3s24.812-46.01,62.175-59.3a76.91,76.91,0,0,0,38.745-30.305,137.156,137.156,0,0,0,11.415-21.519" transform="translate(-34.447 -17.402)" fill="none" stroke="#535461" stroke-linecap="round" stroke-miterlimit="10" stroke-width="2"/><path d="M320.052,335.227c.792,6.159,13.733,22.5,13.733,22.5s8.353-19.346,7.56-25.5A11.611,11.611,0,0,0,340.036,328a11.109,11.109,0,0,0-2.769-3.361,10.558,10.558,0,0,0-3.794-1.979,10.273,10.273,0,0,0-4.23-.289,10.436,10.436,0,0,0-4.008,1.447,10.931,10.931,0,0,0-3.161,2.957,11.48,11.48,0,0,0-1.822,4.007,11.77,11.77,0,0,0-.2,4.432Z" transform="translate(-34.561 -21.228)" fill="#f9a826"/><path d="M468.243,253.707c-4.257,4.323-24.087,8.8-24.087,8.8s4.862-20.618,9.12-24.941a10.689,10.689,0,0,1,3.525-2.383,10.312,10.312,0,0,1,8.229.134,10.762,10.762,0,0,1,3.452,2.5,11.325,11.325,0,0,1,2.275,3.69,11.741,11.741,0,0,1-.128,8.615,11.289,11.289,0,0,1-2.386,3.613Z" transform="translate(-47.981 -15.44)" opacity="0.25"/><path d="M455.579,293.431c-5.816,1.21-24.786-6.326-24.786-6.326s14.774-14.538,20.609-15.748a10.369,10.369,0,0,1,7.915,1.812,11.3,11.3,0,0,1,4.455,7.084,11.683,11.683,0,0,1-1.538,8.328,10.755,10.755,0,0,1-6.656,4.835Z" transform="translate(-46.538 -17.864)" opacity="0.25"/><path d="M410.57,336.683c-5.607-2.038-18.352-18.558-18.352-18.558s19.776-4.731,25.383-2.7a10.926,10.926,0,0,1,6.15,5.716,11.733,11.733,0,0,1,.488,8.593,11.1,11.1,0,0,1-5.46,6.439,10.3,10.3,0,0,1-8.209.51Z" transform="translate(-42.37 -20.744)" opacity="0.25"/><path d="M368.231,361.542c-5.855-1.013-21.085-15.044-21.085-15.044s18.729-8.161,24.577-7.149a10.443,10.443,0,0,1,3.988,1.5,10.966,10.966,0,0,1,3.124,3,11.492,11.492,0,0,1,1.774,4.028,11.765,11.765,0,0,1,.15,4.432,11.588,11.588,0,0,1-1.5,4.148,11.067,11.067,0,0,1-2.915,3.219,10.522,10.522,0,0,1-3.877,1.789,10.28,10.28,0,0,1-4.237.081Z" transform="translate(-37.501 -22.348)" opacity="0.25"/><path d="M412.259,270.2c0,6.215,10.745,24.232,10.745,24.232s10.744-18.011,10.744-24.218a11.521,11.521,0,0,0-3.147-7.953,10.407,10.407,0,0,0-15.195,0,11.521,11.521,0,0,0-3.147,7.953Z" transform="translate(-44.535 -17.058)" opacity="0.25"/><path d="M363.446,299.7c1.773,5.926,17.17,19.761,17.17,19.761s5.11-20.555,3.357-26.481a11.419,11.419,0,0,0-2.01-3.857,10.868,10.868,0,0,0-3.266-2.757,10.317,10.317,0,0,0-8.2-.772,10.62,10.62,0,0,0-3.684,2.1,11.187,11.187,0,0,0-2.634,3.42,11.734,11.734,0,0,0-.737,8.582Z" transform="translate(-39.209 -18.779)" opacity="0.25"/><path d="M320.052,335.227c.792,6.159,13.733,22.5,13.733,22.5s8.353-19.346,7.56-25.5A11.611,11.611,0,0,0,340.036,328a11.109,11.109,0,0,0-2.769-3.361,10.558,10.558,0,0,0-3.794-1.979,10.273,10.273,0,0,0-4.23-.289,10.436,10.436,0,0,0-4.008,1.447,10.931,10.931,0,0,0-3.161,2.957,11.48,11.48,0,0,0-1.822,4.007,11.77,11.77,0,0,0-.2,4.432Z" transform="translate(-34.561 -21.228)" opacity="0.25"/><path d="M405.275,202.3c-2.216,5.757-18.614,18.277-18.614,18.277s-3.532-20.913-1.343-26.713a11.319,11.319,0,0,1,2.3-3.67,10.756,10.756,0,0,1,3.466-2.469,10.3,10.3,0,0,1,8.224-.072,10.715,10.715,0,0,1,3.506,2.408,11.293,11.293,0,0,1,2.358,3.629,11.744,11.744,0,0,1,.069,8.61Z" transform="translate(-41.548 -12.307)" fill="#f9a826"/><path d="M409.436,243.55c-4.855,3.571-25.107,4.739-25.107,4.739s7.889-19.564,12.758-23.136a10.533,10.533,0,0,1,3.834-1.778,10.272,10.272,0,0,1,4.191-.106,10.449,10.449,0,0,1,3.911,1.581,10.977,10.977,0,0,1,3.035,3.027,11.528,11.528,0,0,1,1.7,4.013,11.747,11.747,0,0,1,.1,4.388,11.586,11.586,0,0,1-1.509,4.1,11.062,11.062,0,0,1-2.892,3.177Z" transform="translate(-41.518 -14.696)" fill="#f9a826"/><path d="M385.229,301.465c-5.916.52-23.959-9.139-23.959-9.139s16.244-12.717,22.159-13.237a10.438,10.438,0,0,1,7.69,2.714,11.43,11.43,0,0,1,3.684,7.57,11.606,11.606,0,0,1-2.424,8.107,10.618,10.618,0,0,1-7.149,4.02Z" transform="translate(-39.027 -18.383)" fill="#f9a826"/><path d="M356.777,341.266c-5.748,1.553-25.094-4.773-25.094-4.773s13.954-15.409,19.7-16.963a10.334,10.334,0,0,1,8.146,1.2,11.212,11.212,0,0,1,4.948,6.881,11.71,11.71,0,0,1-1.149,8.529,10.815,10.815,0,0,1-6.573,5.18Z" transform="translate(-35.831 -21.024)" fill="#f9a826"/><path d="M360.271,240.684c2.4,5.68,19.192,17.575,19.192,17.575s2.853-21.019.457-26.713a11.273,11.273,0,0,0-2.394-3.643,10.7,10.7,0,0,0-3.55-2.4,10.294,10.294,0,0,0-8.281.181,10.764,10.764,0,0,0-3.451,2.549A11.322,11.322,0,0,0,360,231.982a11.732,11.732,0,0,0,.274,8.667Z" transform="translate(-38.814 -14.803)" fill="#f9a826"/><path d="M327.507,287.41c3.915,4.661,23.341,10.777,23.341,10.777s-3.283-20.956-7.2-25.624a10.888,10.888,0,0,0-3.319-2.873,10.323,10.323,0,0,0-8.409-.755,10.65,10.65,0,0,0-3.738,2.24,11.235,11.235,0,0,0-2.6,3.6,11.732,11.732,0,0,0-.353,8.828,11.316,11.316,0,0,0,2.3,3.811Z" transform="translate(-35.059 -17.678)" fill="#f9a826"/><path d="M302.355,337.521c3.1,5.293,21.26,14.762,21.26,14.762s.154-21.23-2.955-26.524a10.754,10.754,0,0,0-6.639-4.8,10.339,10.339,0,0,0-7.958,1.392,11.221,11.221,0,0,0-4.788,6.8A11.712,11.712,0,0,0,302.355,337.521Z" transform="translate(-32.51 -21.124)" fill="#f9a826"/><path d="M314.839,236.384s-5.809,40.97-3.734,49-3.727,70.473-3.727,70.473,1.705,13.252-4.446,22.144c-.718,0-1.437.042-2.162.042h-.584q-4.493.064-8.978,0a368.4,368.4,0,0,1-53.264-4.477l-2.586-.415-3.31-.562q-17.183-3-34.039-7.649-5.486-1.519-10.939-3.206c-1.342-.4-2.625-.822-3.934-1.244q-12.638-4.077-24.954-9.139c-.6-.246-1.2-.492-1.793-.745a342.549,342.549,0,0,1-44.245-22.2l-1.4-.844-.839-.506-1.431-.872c-1-.6-2.014-1.224-2.994-1.856-1.465-.907-2.928-1.842-4.372-2.812l-1.283-.837c-2.1-1.406-4.19-2.77-6.3-4.112-.906-.584-1.82-1.153-2.733-1.723h-.074a76.168,76.168,0,0,0-13.934-7.029,54.275,54.275,0,0,0-5.439-1.652c-.577-.134-1.168-.274-1.746-.393l-1.471-.275c-.3-.063-.6-.12-.9-.154l8.219-20.879.168-.421h-.255c-10.791-.851-21.354-3.7-31.843-6.531H43.47l.2-.435c.054-.12.114-.253.175-.373l-.329-.084H43.47q1.417-3.115,2.827-6.229l.369.1.3-.7c.342-.766.671-1.525.994-2.285,4.606-10.586,8.6-21.455,9.911-32.921a61.235,61.235,0,0,0,.349-9.5,53.8,53.8,0,0,0-3.787-18.165c-.087-.225-.175-.435-.269-.654a37.688,37.688,0,0,0-9.4-13.356c-2.652-2.369-5.674-4.337-7.883-7.149-2.834-3.6-4.063-8.239-5.218-12.731-1.43-5.547-2.854-11.283-2.921-16.977v-1.539a28.454,28.454,0,0,1,.443-4.921l.04.7a2.7,2.7,0,0,1,.087-.5c2.135-10.333,10.254-18.137,18.581-24.239,6.158-4.534,12.759-8.64,18.292-13.9l.094-.07a45.434,45.434,0,0,0,5.238-5.934c6.608-9.075,8.985-20.808,9.139-32.182v-.7a1.69,1.69,0,0,1,0,.183v-.4a73.862,73.862,0,0,1,.437-10.067v.949a22.2,22.2,0,0,1,.671-3.086,19.788,19.788,0,0,1,3.53-6.9,18.784,18.784,0,0,1,5.837-4.886,6.82,6.82,0,0,1,.671-.33c7.984-4.084,18.762-3.663,27.377-3.7,15.686-.063,31.043,2.6,46.837,1.968,14.518-.569,29.184-1.708,43.467,1.054s28.445,10,36.261,22.685a29.939,29.939,0,0,1,4.64,13.258v.253a.688.688,0,0,1,.034-.26v1.5c.161,8.365-3.465,16.935-.86,24.85,4.183,12.717,21.689,16,26.666,28.414a16.7,16.7,0,0,1,1.041,3.852,1.85,1.85,0,0,1,.074-.309,19,19,0,0,1,.128,2.538,24.9,24.9,0,0,1-5.292,15.3,63.631,63.631,0,0,1,6.084,1.983l-.5.133C293.847,167.964,322.494,186.241,314.839,236.384Z" transform="translate(-3.105 -2.933)" fill="#fff"/><path d="M81.307,60.616c-1.276,4.218-1.048,8.717-1.108,13.132-.161,11.374-2.511,23.114-9.065,32.2-6.091,8.436-15.169,13.8-23.415,19.908s-16.291,13.919-18.413,24.26c-1.578,7.733.376,15.677,2.323,23.3,1.148,4.492,2.37,9.139,5.177,12.739,2.189,2.812,5.184,4.78,7.8,7.155C55.622,203.25,59.315,219.89,57.6,235.01s-8.058,29.181-14.269,42.931c11.543,3.156,23.194,6.327,35.12,6.77s24.3-2.108,33.952-9.426c18.1-13.744,22.367-40.07,36.549-58.192,5.332-6.8,11.993-12.316,18.9-17.315,6.668-4.815,13.726-9.237,21.489-11.634s15.882-2.686,23.845-3.958c10.745-1.715,21.092-5.2,31.346-8.879,8.159-2.924,16.519-6.13,22.832-12.3s10-16.113,6.715-24.45c-4.929-12.415-22.281-15.691-26.43-28.422-2.733-8.387,1.47-17.525.792-26.361a30.245,30.245,0,0,0-4.6-13.258c-7.756-12.7-21.8-19.943-35.953-22.7s-28.687-1.624-43.077-1.047c-15.652.626-30.889-2.039-46.421-1.975C104.985,44.848,86.4,43.786,81.307,60.616Z" transform="translate(-3.104 -2.95)" fill="#965d7b"/><path d="M320.473,371.628s4.875-52.59,33.9-80.561a81.1,81.1,0,0,0,23.67-44.161,140.241,140.241,0,0,0,2.116-24.52" transform="translate(-34.62 -14.649)" fill="none" stroke="#535461" stroke-linecap="round" stroke-miterlimit="10" stroke-width="2"/><g transform="translate(25.604 59.802)" opacity="0.1"><path d="M273.561,99.835c.584-4.422,1.518-8.907,1.343-13.322C274.313,91,273.366,95.511,273.561,99.835Z" transform="translate(-55.153 -65.501)" opacity="0.1"/><path d="M86.833,67.218v-3.2a73.932,73.932,0,0,0-.43,10.074v.4C86.671,72.068,86.806,69.636,86.833,67.218Z" transform="translate(-34.938 -64.019)" opacity="0.1"/><path d="M269.535,162.073c-6.292,6.172-14.652,9.378-22.831,12.3-10.26,3.67-20.609,7.164-31.326,8.907-7.964,1.272-16.116,1.567-23.851,3.958s-14.82,6.819-21.488,11.635c-6.91,5-13.571,10.544-18.9,17.314-14.182,18.1-18.453,44.45-36.55,58.193-9.656,7.318-22.032,9.835-33.931,9.427-11.1-.408-21.972-3.184-32.729-6.116-.927,2.108-1.867,4.162-2.8,6.228,11.537,3.156,23.194,6.327,35.113,6.77s24.3-2.108,33.958-9.434c18.1-13.736,22.368-40.069,36.55-58.186,5.332-6.8,11.986-12.323,18.9-17.314,6.668-4.815,13.719-9.244,21.488-11.641s15.888-2.678,23.852-3.958c10.744-1.715,21.092-5.2,31.346-8.879,8.152-2.917,16.518-6.122,22.831-12.295,5.2-5.1,8.629-12.773,7.8-19.986A27.112,27.112,0,0,1,269.535,162.073Z" transform="translate(-30.478 -69.617)" opacity="0.1"/><path d="M57.99,234.76v-.134C59.7,219.506,55.975,202.866,45,192.92c-2.619-2.376-5.62-4.345-7.81-7.156-2.807-3.607-4.029-8.246-5.171-12.739-1.309-5.139-2.626-10.431-2.861-15.7-1.343,7.487.564,15.2,2.451,22.587,1.148,4.492,2.364,9.139,5.171,12.738,2.189,2.812,5.191,4.78,7.81,7.15C53.994,208.286,58.064,221.636,57.99,234.76Z" transform="translate(-28.705 -70.165)" opacity="0.1"/></g><path d="M322.983,240.973l-73.927,76.814H150.762l-17.533-41.567-5.472-43.585,9.857-48.154s48.738,5.16,29.842-24.077,35.321-51.88,35.321-51.88,14.726,34.833,25.135,39.7,48.254,15.071,48.254,15.071.531.085,1.477.3a57.687,57.687,0,0,1,8.294,2.546C301.776,172.243,330.651,190.457,322.983,240.973Z" transform="translate(-13.801 -7.149)" fill="#ffc1c7"/><path d="M276.335,247.243A27.423,27.423,0,0,0,290.027,259C299.885,263.018,276.335,247.243,276.335,247.243Z" transform="translate(-29.852 -16.286)" opacity="0.1"/><path d="M203.945,254.61s-14.5,25.792-11.758,46.7Z" transform="translate(-20.724 -16.771)" opacity="0.1"/><path d="M300.663,170.016c-6.514,1.567-14.989,6.389-18.8,20.386a167.4,167.4,0,0,0-5.754,45.862L278.57,267.2h-6.876V220.468c-.543-5.448,7.387-33.828,7.387-33.828,1.175-5.125,8.938-14.355,13.256-19.191a57.683,57.683,0,0,1,8.327,2.566Z" transform="translate(-29.348 -11.03)" opacity="0.1"/><path d="M302.507,170.016c-6.513,1.567-14.988,6.389-18.8,20.386a167.532,167.532,0,0,0-5.748,45.862l2.464,30.931h-6.882V220.468c-.55-5.448,7.386-33.828,7.386-33.828,1.176-5.125,8.931-14.355,13.256-19.191a57.918,57.918,0,0,1,8.327,2.566Z" transform="translate(-29.547 -11.03)" opacity="0.1"/><path d="M301.582,170.016c-6.513,1.567-14.988,6.389-18.8,20.386a167.219,167.219,0,0,0-5.748,45.862L279.5,267.2h-6.876V220.468c-.551-5.448,7.386-33.828,7.386-33.828,1.175-5.125,8.931-14.355,13.248-19.191a57.646,57.646,0,0,1,8.327,2.566Z" transform="translate(-29.448 -11.03)" fill="#dbe5f2"/><path d="M146.928,241.7s9.106,51.74,57.025,59.753l-2.23,25.089h-50.96l-23-85.151Z" transform="translate(-13.802 -15.901)" fill="#dbe5f2"/><path d="M163.74,356.054l-1,11.128a342.678,342.678,0,0,1-44.245-22.2l-1.4-.843-.839-.506-1.431-.872c-1-.6-2.014-1.223-2.994-1.856-1.464-.906-2.928-1.841-4.372-2.812l-1.283-.836c-2.1-1.407-4.19-2.771-6.3-4.113-.906-.584-1.82-1.153-2.733-1.723l-.04-.112-5.9-21.856-.181-.66-2.015-7.565-.255-.914-1.168-4.345,13.013.2h2.028l4.1.134s.054.317.181.907l.188.858a85.087,85.087,0,0,0,2.988,10c.276.745.564,1.5.873,2.291a94.022,94.022,0,0,0,4.183,9.09,83.969,83.969,0,0,0,4.345,7.3c1.235,1.87,2.585,3.74,4.029,5.575q.812,1.013,1.672,2c.524.612,1.068,1.216,1.618,1.821,1.1,1.195,2.257,2.362,3.472,3.515l.376.351c.5.464,1.007.921,1.524,1.406.363.317.732.632,1.115.949a63.031,63.031,0,0,0,30.446,13.694Z" transform="translate(-9.462 -19.496)" fill="#dbe5f2"/><path d="M254.315,390.853,256.06,371.4l.417-4.668a65.389,65.389,0,0,1-15.9-4.745h0q-2.2-.97-4.231-2.108c-1.631-.887-3.2-1.822-4.7-2.813a63.874,63.874,0,0,1-8.131-6.333,76.068,76.068,0,0,1-15.217-19.88c-.275-.514-.55-1.019-.805-1.525q-1.175-2.3-2.156-4.485c-.349-.767-.671-1.526-.98-2.257a82.247,82.247,0,0,1-4.909-15.62l-14.478-.218-3.962-.064h-.725l.866,3.234,5.661,20.941,4.472,16.52.335,1.244.967,3.557,1.692,6.277.35,1.28.235.872,1.162,4.323,3.472,12.843c1.342.422,2.619.844,3.935,1.244q5.447,1.7,10.939,3.206,16.834,4.639,34.039,7.649l3.311.562Z" transform="translate(-19.475 -20.201)" fill="#dbe5f2"/><path d="M247.873,385.14a368.282,368.282,0,0,0,53.263,4.478q4.493.042,8.979,0h.584c5.768-8.9,4.13-21.792,4.13-21.792s5.741-62.488,3.693-70.516,3.694-49.012,3.694-49.012l-7.386-12.9c-30.943-42.13-44.145,15.191-44.145,15.191l-.087,2.616-.095,2.714-.571,16.393-1.087,31.451-1.659,48.021s-19.023,1.28-37.289,2.4c-4.774.289-9.488.576-13.806.809l-4.391.274-2.512.134c-3.142.169-5.862.289-7.944.365l-1.974.064a66.975,66.975,0,0,1-10.852-.907l-1.343-.2a253.517,253.517,0,0,1-25.343-5.771s-10.388-9.877-24.845-11.621a34.652,34.652,0,0,0-16.237,1.856l1.4.844a342.434,342.434,0,0,0,44.245,22.2c.59.253,1.2.5,1.793.745Q180.4,368,193.044,372.107c1.343.422,2.619.844,3.935,1.244q5.445,1.7,10.938,3.206,16.836,4.639,34.039,7.649l3.311.562Z" transform="translate(-13.033 -14.488)" fill="#ffc1c7"/><path d="M137.039,250.776l-7.507,13.455-.672,1.195-.6,1.055-.04.07-2.485,4.464-7,12.556-.96,1.715-9.4,16.794-4.029,7.311-1.974,3.514-6.957,12.436-.034.078a76.233,76.233,0,0,0-13.934-7.03,54.524,54.524,0,0,0-5.439-1.652c-.578-.134-1.168-.275-1.746-.394l-1.471-.274c-.3-.064-.6-.12-.9-.155h-.168l8.132-20.864.168-.429.181-.464,2.639-6.756L94.5,257.482l.631-1.6L114.9,205.16l9.689,19.916,6.836,14.06Z" transform="translate(-7.748 -13.514)" fill="#ffc1c7"/><path d="M235.737,358.5c-3.613-1.1-11.416.176-19.165,2.018-10.536,2.5-21.045,6.018-21.045,6.018s-7.118-50.558,0-43.458a10.922,10.922,0,0,0,1.968,1.568c6.956,4.337,15.827-1.568,15.827-1.568S244.292,361.126,235.737,358.5Z" transform="translate(-20.781 -21.236)" fill="#ffd5d7"/><path d="M303.1,318.885a51.891,51.891,0,0,1-7.593,27.1A48.642,48.642,0,0,1,275.133,364.5a46,46,0,0,1-26.7,4.055,46.964,46.964,0,0,1-24.56-11.684,50.467,50.467,0,0,1-14.638-23.722,52.426,52.426,0,0,1-.077-28.241,50.5,50.5,0,0,1,14.507-23.81,46.988,46.988,0,0,1,24.5-11.832,45.389,45.389,0,0,1,7.017-.534,46.057,46.057,0,0,1,18.337,3.816,47.832,47.832,0,0,1,15.546,10.872,50.371,50.371,0,0,1,10.387,16.273,52.2,52.2,0,0,1,3.648,19.2Z" transform="translate(-22.39 -17.701)" fill="#ffd5d7"/><path d="M192.584,278.506s-10.852-2.334-10.146,0a30.406,30.406,0,0,1,.866,5.841s6.608-.7,9.28-1.307S192.584,278.506,192.584,278.506Z" transform="translate(-19.705 -18.277)" fill="#ffd5d7"/><path d="M191.643,286.024s-10.845-2.334-10.146,0a30.411,30.411,0,0,1,.866,5.841s6.608-.7,9.28-1.307S191.643,286.024,191.643,286.024Z" transform="translate(-19.603 -18.772)" fill="#ffd5d7"/><path d="M93.351,219.719c4.532,9.954,2.471,21.617,1.934,32.633-.255,5.335.671,11.95,5.453,13.8,1.3.5,2.921.7,3.552,2a3.924,3.924,0,0,1,.175,2.187c-.672,5.384-3.236,10.3-4.539,15.557-3.713,15.009,4.351,32.231,17.963,38.354a4.2,4.2,0,0,0,3,.471,4.4,4.4,0,0,0,1.974-1.821c7.783-11.248,7.931-26.488,14.411-38.594,5.177-9.673,14.142-16.823,18.493-26.931,3.458-8.042,3.639-17.146,5.332-25.786,2.686-13.707,9.24-26.713,9.3-40.667a12.337,12.337,0,0,0-.98-5.623c-1.047-2.109-3.015-3.452-4.9-4.731l-25.3-17.174a41.418,41.418,0,0,0-6.191-3.691c-7.441-3.318-16.23-1.757-23.382,2.2-5.9,3.262-10.878,7.992-15.552,12.921-3.781,3.978-8.951,7.276-12.4,11.423C72.7,197.055,89.241,210.644,93.351,219.719Z" transform="translate(-8.54 -10.401)" fill="#965d7b"/><g transform="translate(70.518 177.544)" opacity="0.1"><path d="M93.352,215.074c-2.834-6.235-11.577-14.636-13.786-22.8-3.264,10.074,10.14,21.66,13.786,29.68a34.153,34.153,0,0,1,2.78,12.492C96.407,227.713,96.085,221.085,93.352,215.074Z" transform="translate(-79.059 -190.21)" opacity="0.1"/><path d="M105.627,273.848a29.5,29.5,0,0,0,.805-3.887,3.94,3.94,0,0,0-.181-2.221c-.632-1.294-2.257-1.491-3.559-2-3.432-1.329-4.875-5.1-5.318-9.14-.047.7-.094,1.463-.128,2.193-.255,5.336.671,11.951,5.446,13.8A11.674,11.674,0,0,1,105.627,273.848Z" transform="translate(-81.019 -194.447)" opacity="0.1"/><path d="M163.519,226.823c-1.692,8.64-1.873,17.743-5.331,25.785-4.351,10.109-13.316,17.265-18.493,26.932-6.48,12.1-6.621,27.36-14.411,38.608a3.49,3.49,0,0,1-.895,1.192,3.308,3.308,0,0,1-1.292.688,3.217,3.217,0,0,1-1.449.053,3.281,3.281,0,0,1-1.334-.59c-10.348-4.654-17.459-15.726-18.681-27.367-1.49,13.926,6.3,28.682,18.681,34.249a4.2,4.2,0,0,0,3,.472,4.406,4.406,0,0,0,1.974-1.821c7.782-11.248,7.931-26.489,14.411-38.594,5.177-9.674,14.142-16.823,18.493-26.932,3.458-8.042,3.639-17.145,5.331-25.785,2.687-13.708,9.24-26.713,9.3-40.667a19.244,19.244,0,0,0-.181-2.981C171.564,202.577,165.977,214.4,163.519,226.823Z" transform="translate(-81.478 -190.064)" opacity="0.1"/></g><path d="M304.821,318.885A51.858,51.858,0,0,1,296.78,346.7a48.481,48.481,0,0,1-21.42,18.479,45.938,45.938,0,0,1-27.613,2.946,47.268,47.268,0,0,1-24.542-13.574,1.467,1.467,0,0,1,0-.415,2.894,2.894,0,0,1,1.343-1.877c8.73-7.409,10.845-21.982,4.653-31.788-1.249-1.983-2.807-3.818-3.445-6.1-1.6-5.723,3.076-11.163,4.13-17.019.672-3.874-.141-8.219,1.914-11.523,2.6-4.182,8.467-4.541,11.872-8.034,2.894-2.981,4.364-6.06,6.245-8.534a45.4,45.4,0,0,1,7.017-.534,46.855,46.855,0,0,1,33.862,14.7,51.377,51.377,0,0,1,14.024,35.457Z" transform="translate(-24.111 -17.701)" fill="#ce8ea0" opacity="0.5"/><path d="M138.558,311.935l-1.115,5.392L132.4,341.8s-1.928-1.49-4.661-3.677c-5.1-4.063-13.02-10.544-16.493-14.165-5.338-5.623,6.158-18.277,6.158-18.277s.866.562,2.229,1.272a22.382,22.382,0,0,0,8.058,2.594,46.268,46.268,0,0,1,7.931,1.491C137.336,311.534,138.558,311.935,138.558,311.935Z" transform="translate(-11.865 -20.135)" fill="#ffd5d7"/><path d="M151.23,293.408,146.207,308.4l-1.753,5.216-6.037,2.517L132.7,318.5l-3.854,1.609-10.059-10.46v-1.94l1.812-1.947,17.1-18.383Z" transform="translate(-12.833 -18.93)" fill="#ffd5d7"/><path d="M156.844,179.213c29.187,0,52.848-24.769,52.848-55.325s-23.66-55.324-52.848-55.324S104,93.334,104,123.889,127.656,179.213,156.844,179.213Z" transform="translate(-11.234 -4.516)" opacity="0.1"/><path d="M156.844,177.369c29.187,0,52.848-24.769,52.848-55.324s-23.66-55.325-52.848-55.325S104,91.491,104,122.046,127.656,177.369,156.844,177.369Z" transform="translate(-11.234 -4.395)" fill="#ffc1c7"/><path d="M216.572,360.545c-10.536,2.5-21.045,6.018-21.045,6.018s-7.118-50.558,0-43.458a10.922,10.922,0,0,0,1.968,1.568c3.666,8.224,12,22.116,12,22.116C208.064,348.658,213.953,357.009,216.572,360.545Z" transform="translate(-20.781 -21.238)" opacity="0.1"/><path d="M147.39,309.847l-1.753,5.216-6.044,2.517-5.042,24.47s-1.928-1.49-4.661-3.677c-.772-4.843,1.551-12.3,4.029-18.417,1.45-3.635,2.948-6.8,3.868-8.661.557-1.125.9-1.779.9-1.779S140.621,312.152,147.39,309.847Z" transform="translate(-14.016 -20.388)" opacity="0.1"/><path d="M208.564,360.721,207.3,381.86q-5.486-1.519-10.939-3.206c-1.342-.4-2.625-.822-3.934-1.244q-12.638-4.077-24.953-9.139c-.6-.247-1.2-.492-1.793-.745a342.623,342.623,0,0,1-44.246-22.2l-1.4-.844-.839-.506-1.431-.872c-1-.605-2.014-1.224-2.994-1.856a72.588,72.588,0,0,1,15.081-2.187h.35a10.336,10.336,0,0,1-.417-2.6c-.228-5.047,2.122-12.161,4.472-17.884.672-1.609,1.309-3.1,1.907-4.415.537-1.167,1.028-2.2,1.431-3.015.268-.556.5-1.02.671-1.371.262-.52.417-.816.417-.816a3.233,3.233,0,0,0,1.524.929,3.694,3.694,0,0,0,.544.154,6.55,6.55,0,0,0,.96.155,10.872,10.872,0,0,0,2.156-.05,15.74,15.74,0,0,0,1.726-.323c.5-.12,1.041-.275,1.618-.457.417-.141.86-.3,1.343-.478s.758-.3,1.148-.471a50.585,50.585,0,0,0,7.333-4.049c10.368-6.714,15.062-1.631,16.915,1.92A13.017,13.017,0,0,1,175,308.961s11.872,4.865,11.6,8.991a12.679,12.679,0,0,0,1.343,4.422c.98,2.3,2.417,5.16,3.955,8.084,3.861,7.283,8.434,14.9,8.434,14.9-1.471,1.892,4.472,10.327,7.078,13.842l.094.126.893,1.182C208.5,360.644,208.564,360.721,208.564,360.721Z" transform="translate(-12.398 -19.833)" fill="#575988"/><path d="M129.662,268.4l-.672,1.195-.6,1.055-.04.07-2.484,4.464-7,12.556-.96,1.715-9.4,16.794-4.029,7.311-1.974,3.514-6.957,12.436-.034.078a76.233,76.233,0,0,0-13.934-7.03,54.512,54.512,0,0,0-5.439-1.652c-.577-.134-1.168-.275-1.746-.394l-1.471-.274a12.645,12.645,0,0,1,5.97-1.16s5.433-6.361,10.583-12.119c3.109-3.472,6.111-6.728,7.756-8.232.141-.127.276-.261.409-.394a13.3,13.3,0,0,0,.94-1.047l.041-.056a22.1,22.1,0,0,0,1.94-2.854c.121-.211.235-.408.343-.612q1.287-2.375,2.8-4.6a49.481,49.481,0,0,1,14.2-14.074c2.169-1.406,4.62-2.883,7.386-4.394,1.115-.6,2.27-1.216,3.479-1.841Z" transform="translate(-7.877 -17.68)" opacity="0.1"/><path d="M178.054,289.367a25.653,25.653,0,0,1-.672,6.229,22.106,22.106,0,0,1-2.807,6.748,12.015,12.015,0,0,1-1.027,1.406,12.528,12.528,0,0,1-2.908,2.608,10.234,10.234,0,0,1-.913.556c-6.271,3.458-15.444,2.333-23.986-.155-.531-.154-1.048-.309-1.572-.478-.792-.238-1.584-.505-2.364-.773-1.068-.366-2.122-.739-3.142-1.132q-2.256-.858-4.291-1.723l-1.853-.808-1.68-.795c-4.653-2.108-7.708-3.88-7.708-3.88s-1.49,3.326-3.848,8.38c-.4.858-.819,1.765-1.269,2.714-.383.815-.785,1.666-1.2,2.551-.954,1.99-1.967,4.12-3.034,6.327-.591,1.238-1.2,2.482-1.827,3.754-.491,1-.987,2.01-1.49,3.023l-.913,1.821c-1.565,3.135-3.17,6.271-4.761,9.266-2.1-1.407-4.19-2.77-6.3-4.113-.907-.583-1.82-1.153-2.733-1.723h-.074a76.166,76.166,0,0,0-13.934-7.029,54.5,54.5,0,0,0-5.439-1.652c-.578-.134-1.168-.274-1.746-.393a12.725,12.725,0,0,1,4.492-.576s5.56-6.5,10.744-12.316c3.035-3.4,5.956-6.559,7.575-8.034a12.981,12.981,0,0,0,1.256-1.336l.094-.1.1-.134c.255-.309.5-.639.732-.97a24.662,24.662,0,0,0,1.5-2.439l.134-.239a54.859,54.859,0,0,1,3.425-5.469,49.438,49.438,0,0,1,13.457-13c2.2-1.406,4.7-2.917,7.487-4.45,1.135-.618,2.324-1.251,3.579-1.884l.2-.1q2.376-1.216,5.016-2.418c.2-.106.417-.2.624-.288q2.935-1.337,6.172-2.672a31.338,31.338,0,0,1,6.3-1.863,25.668,25.668,0,0,1,5.734-.422,22.581,22.581,0,0,1,3.028.317h0c8.521,1.406,15.089,7.416,18.695,14.818a30.808,30.808,0,0,1,2.229,6.1c.108.457.222.914.31,1.406a29.348,29.348,0,0,1,.6,5.342Z" transform="translate(-8.055 -17.216)" fill="#ffc1c7"/><path d="M208.927,363.483l-1.269,21.139q-5.486-1.519-10.938-3.206c-1.343-.4-2.626-.822-3.935-1.244q-12.637-4.077-24.953-9.139c-.6-.247-1.2-.492-1.793-.745a342.56,342.56,0,0,1-44.245-22.2l-1.4-.844-.839-.506-1.43-.872a34.785,34.785,0,0,1,13.591-2.855h2.276c15.659,1,27.075,11.922,27.075,11.922a254.666,254.666,0,0,0,25.518,5.793l.987.155a67.128,67.128,0,0,0,11.026.935c2.015-.042,5.177,0,9.173.154l.094.127.893,1.181C208.86,363.406,208.927,363.483,208.927,363.483Z" transform="translate(-12.76 -22.595)" opacity="0.1"/><path d="M289.9,365.988c-.162-.262.305,0,0,0Z" transform="translate(-31.314 -24.1)" opacity="0.1"/><path d="M290.371,367.372a.146.146,0,0,1-.041-.092c0-.064.1,0,.136,0S290.466,367.365,290.371,367.372Z" transform="translate(-31.364 -24.191)" fill="#ffc1c6"/><path d="M247.777,393.338a368.278,368.278,0,0,0,53.263,4.478q4.493.042,8.979,0l.061-.084-31.8-26.32c-4.244-3.514-3.357-.85-6.339-5.546-4.176.274-21.152-.576-37.9-1.406-6.043-.3-12.087-.59-17.459-.815l-4.983-.183-2.687-.1c-1.826-.071-3.5-.113-4.983-.155-1.953-.035-3.572-.042-4.754,0a67.194,67.194,0,0,1-11.079-.984l-1.189-.183a254.192,254.192,0,0,1-25.235-5.75s-10.933-10.4-25.954-11.74a34.582,34.582,0,0,0-15.962,2.3l.839.506,1.4.844a342.675,342.675,0,0,0,44.245,22.2c.591.253,1.2.5,1.793.744q12.309,5.035,24.954,9.14c1.342.421,2.619.843,3.934,1.244q5.447,1.7,10.939,3.205,16.834,4.639,34.039,7.649l3.31.562Z" transform="translate(-12.938 -22.686)" fill="#ffc1c6"/><path d="M169.207,346.052s20.259,1.407,23.543,5.73Z" transform="translate(-18.279 -22.795)" opacity="0.1"/><path d="M106.576,119.8c2.472-2.263,6.2-1.61,9.489-1.406a26.475,26.475,0,0,0,10.882-1.783,27.431,27.431,0,0,0,9.35-6.1c2.915-2.917,5.292-6.573,8.884-8.485,5.077-2.707,11.308-1.224,16.419,1.406s9.717,6.361,15.082,8.359a6.833,6.833,0,0,0,3.525.555c4.124-.7,4.594-6.566,5.064-10.91,1.342-12.281,11.093-1.751,22.831-2.58,1.243-3.2.39-28.007-2.129-30.228s-5.8-3.241-8.971-4.169q-22-6.411-44.454-10.945c-5.949-1.2-12.087-2.3-18.044-1.322-5.143.837-9.952,3.17-14.638,5.546C112.66,61.4,105.36,65.381,100.022,71.63,89.278,84.207,89.03,102.3,90.03,118.2c.309,4.886-.792,17.687,5.6,17.856C103.064,136.22,102.574,123.453,106.576,119.8Z" transform="translate(-9.685 -3.413)" opacity="0.1"/><path d="M106.576,118.879c2.472-2.263,6.2-1.61,9.489-1.406a26.5,26.5,0,0,0,10.882-1.786,27.454,27.454,0,0,0,9.35-6.094c2.915-2.917,5.292-6.573,8.884-8.492,5.077-2.706,11.308-1.223,16.419,1.406s9.717,6.362,15.082,8.359a6.824,6.824,0,0,0,3.525.555c4.124-.7,4.594-6.565,5.064-10.917,1.342-12.274,11.093-1.743,22.831-2.573,1.243-3.206.39-28.007-2.129-30.228s-5.8-3.241-8.971-4.169q-22-6.418-44.454-10.945c-5.949-1.2-12.087-2.3-18.044-1.329-5.143.844-9.952,3.17-14.638,5.553-7.205,3.663-14.505,7.634-19.844,13.884C89.278,83.281,89.03,101.368,90.03,117.27c.309,4.878-.792,17.679,5.6,17.855C103.064,135.3,102.574,122.542,106.576,118.879Z" transform="translate(-9.685 -3.352)" fill="#965d7b"/><path d="M178.179,108.9a6.89,6.89,0,0,1-3.525-.555c-5.372-2-9.979-5.722-15.082-8.366s-11.341-4.119-16.419-1.406c-3.592,1.919-5.969,5.575-8.884,8.492a27.5,27.5,0,0,1-9.351,6.092,26.537,26.537,0,0,1-10.881,1.788c-3.283-.176-7.017-.836-9.5,1.406-4,3.684-3.519,16.414-10.9,16.246a3.885,3.885,0,0,1-1.6-.367,4.053,4.053,0,0,1-1.328-1c.611,3.551,1.961,6.446,4.976,6.524,7.387.2,6.917-12.562,10.912-16.217,2.478-2.271,6.212-1.61,9.5-1.407a26.511,26.511,0,0,0,10.882-1.79,27.474,27.474,0,0,0,9.351-6.1c2.914-2.911,5.291-6.573,8.884-8.485,5.076-2.707,11.3-1.224,16.411,1.406s9.717,6.369,15.089,8.365a6.883,6.883,0,0,0,3.526.548c4.116-.7,4.586-6.566,5.056-10.911C186.62,90.868,182.275,108.161,178.179,108.9Z" transform="translate(-9.799 -6.398)" opacity="0.1"/><path d="M296.993,367.485a27.43,27.43,0,0,0,13.685,11.754C320.529,383.26,296.993,367.485,296.993,367.485Z" transform="translate(-32.084 -24.207)" opacity="0.1"/><path d="M259.373,395.922l-3.311-.562-4.9-5.434A13.058,13.058,0,0,1,259.373,395.922Z" transform="translate(-27.132 -25.685)" opacity="0.1"/><path d="M205.426,326.411l1.934,1.737-.235-3.122Z" transform="translate(-22.192 -21.41)" opacity="0.1"/><path d="M387.265,97.648s-29.07-1.835-25.645,19.494c0,0-.672,3.768,2.585,5.476,0,0,.047-1.574,2.982-1.04a12.667,12.667,0,0,0,3.156.154,6.388,6.388,0,0,0,3.861-1.666h0s8.172-3.515,11.349-17.519c0,0,2.35-3.044,2.256-3.831l-4.9,2.194s1.672,3.7.356,6.784c0,0-.161-6.65-1.1-6.488-.194,0-2.552,1.279-2.552,1.279s2.887,6.454.712,11.142c0,0,.826-7.95-1.612-10.671l-3.451,2.108s3.357,6.664,1.087,12.105c0,0,.584-8.345-1.812-11.592l-3.129,2.551s3.162,6.573,1.235,11.086c0,0-.255-9.715-1.914-10.446,0,0-2.739,2.524-3.156,3.565,0,0,2.169,4.766.826,7.282,0,0-.826-6.467-1.5-6.5,0,0-2.727,4.289-3.009,7.22a16.1,16.1,0,0,1,2.35-7.635,8.136,8.136,0,0,0-4.177,2.264s.423-3.03,4.849-3.29c0,0,2.25-3.255,2.853-3.452,0,0-4.4-.387-7.071.85,0,0,2.35-2.854,7.877-1.56l3.1-2.636s-5.8-.829-8.253.084c0,0,2.827-2.524,9.078-.7l3.357-2.108s-4.935-1.111-7.883-.7c0,0,3.109-1.757,8.871.148l2.4-1.131s-3.62-.746-4.7-.865-1.114-.422-1.114-.422a11.991,11.991,0,0,1,6.8.795S387.352,97.95,387.265,97.648Z" transform="translate(-39.035 -6.43)" fill="#f9a826" opacity="0.1"/><path d="M344.781,0s-19.608,22.537-1.6,33.131c0,0,2.371,2.917,5.7,1.336,0,0-1.142-1.033,1.094-3.086a13.965,13.965,0,0,0,2.1-2.475,7.14,7.14,0,0,0,1.182-4.218h0s2.5-8.879-5.9-20.239c0,0-.793-3.831-1.431-4.218L344.472,5.6s3.807.963,5.272,3.965c0,0-5.043-4.042-5.52-3.177-.1.176-.671,2.882-.671,2.882s6.607,1.7,8.729,6.418c0,0-5.371-5.659-8.951-5.385l-.6,4.134s7.071,1.441,9.683,6.713c0,0-5.835-5.708-9.757-5.8l-.033,4.162s6.869,1.547,9.012,5.947c0,0-7.387-5.891-8.965-4.991,0,0,.161,3.81.672,4.808,0,0,4.9,1.223,5.93,3.9,0,0-5.325-3.388-5.776-2.854,0,0,1.478,4.921,3.486,6.988a15.406,15.406,0,0,1-4.2-6.713,8.968,8.968,0,0,0-.94,4.829s-2.015-2.249.6-6.024c0,0-1.007-3.873-.772-4.492,0,0-3.049,3.346-3.808,6.327,0,0-.671-3.712,3.787-7.4V15.669s-4.25,4.218-5.11,6.777c0,0-.107-3.894,5.191-7.831l.544-4.063s-3.928,3.325-5.479,5.975c0,0,.671-3.627,5.674-7.135l.672-2.671S340.308,9.2,339.556,10s-1.014.64-1.014.64A12.815,12.815,0,0,1,343.4,5.6S345.09.141,344.781,0Z" transform="translate(-36.251)" fill="#f9a826" opacity="0.1"/><path d="M9.213,18.7S-10.4,41.238,7.608,51.832c0,0,2.377,2.917,5.694,1.336,0,0-1.142-1.04,1.095-3.086a13.948,13.948,0,0,0,2.1-2.475,7.1,7.1,0,0,0,1.182-4.218h0s2.5-8.879-5.9-20.246c0,0-.792-3.824-1.43-4.218L8.9,24.3s3.807.963,5.271,3.965c0,0-5.043-4.042-5.52-3.177-.094.176-.672,2.882-.672,2.882s6.608,1.7,8.73,6.418c0,0-5.372-5.624-8.951-5.392l-.6,4.141s7.078,1.441,9.683,6.713c0,0-5.835-5.715-9.757-5.8L7.024,38.2s6.87,1.547,9.012,5.947c0,0-7.387-5.891-8.965-4.991,0,0,.161,3.81.672,4.808,0,0,4.909,1.223,5.936,3.9,0,0-5.332-3.388-5.775-2.854,0,0,1.471,4.921,3.478,6.988a15.406,15.406,0,0,1-4.2-6.713,8.924,8.924,0,0,0-.933,4.829s-2.015-2.25.591-6.024c0,0-1.007-3.873-.772-4.492,0,0-3.049,3.346-3.8,6.327,0,0-.671-3.712,3.781-7.4V34.356S1.786,38.574.927,41.133c0,0-.107-3.894,5.191-7.831l.544-4.063s-3.928,3.325-5.479,5.975c0,0,.671-3.634,5.681-7.135l.672-2.671s-2.827,2.482-3.579,3.276-1.014.64-1.014.64A12.813,12.813,0,0,1,7.8,24.283S9.515,18.841,9.213,18.7Z" transform="translate(0 -1.232)" fill="#f9a826" opacity="0.1"/></g></g></svg>