<svg xmlns="http://www.w3.org/2000/svg" width="234.519" height="195.531" viewBox="0 0 234.519 195.531"><g transform="translate(-260.305 -571.187)"><g transform="matrix(0.574, -0.819, 0.819, 0.574, -103.129, 792.538)"><path d="M468.243,253.707c-4.257,4.323-24.087,8.8-24.087,8.8s4.862-20.618,9.12-24.941a10.689,10.689,0,0,1,3.525-2.383,10.312,10.312,0,0,1,8.229.134,10.762,10.762,0,0,1,3.452,2.5,11.325,11.325,0,0,1,2.275,3.69,11.741,11.741,0,0,1-.128,8.615,11.289,11.289,0,0,1-2.386,3.613Z" transform="translate(-47.981 -15.44)" opacity="0.423"/><path d="M455.579,293.431c-5.816,1.21-24.786-6.326-24.786-6.326s14.774-14.538,20.609-15.748a10.369,10.369,0,0,1,7.915,1.812,11.3,11.3,0,0,1,4.455,7.084,11.683,11.683,0,0,1-1.538,8.328,10.755,10.755,0,0,1-6.656,4.835Z" transform="translate(-46.538 -17.864)" opacity="0.423"/><path d="M410.57,336.683c-5.607-2.038-18.352-18.558-18.352-18.558s19.776-4.731,25.383-2.7a10.926,10.926,0,0,1,6.15,5.716,11.733,11.733,0,0,1,.488,8.593,11.1,11.1,0,0,1-5.46,6.439,10.3,10.3,0,0,1-8.209.51Z" transform="translate(-42.37 -20.744)" opacity="0.423"/><path d="M368.231,361.542c-5.855-1.013-21.085-15.044-21.085-15.044s18.729-8.161,24.577-7.149a10.443,10.443,0,0,1,3.988,1.5,10.966,10.966,0,0,1,3.124,3,11.492,11.492,0,0,1,1.774,4.028,11.765,11.765,0,0,1,.15,4.432,11.588,11.588,0,0,1-1.5,4.148,11.067,11.067,0,0,1-2.915,3.219,10.522,10.522,0,0,1-3.877,1.789,10.28,10.28,0,0,1-4.237.081Z" transform="translate(-37.501 -22.348)" opacity="0.423"/><path d="M412.259,270.2c0,6.215,10.745,24.232,10.745,24.232s10.744-18.011,10.744-24.218a11.521,11.521,0,0,0-3.147-7.953,10.407,10.407,0,0,0-15.195,0,11.521,11.521,0,0,0-3.147,7.953Z" transform="translate(-44.535 -16.059)" opacity="0.423"/><path d="M363.446,299.7c1.773,5.926,17.17,19.761,17.17,19.761s5.11-20.555,3.357-26.481a11.419,11.419,0,0,0-2.01-3.857,10.868,10.868,0,0,0-3.266-2.757,10.317,10.317,0,0,0-8.2-.772,10.62,10.62,0,0,0-3.684,2.1,11.187,11.187,0,0,0-2.634,3.42,11.734,11.734,0,0,0-.737,8.582Z" transform="translate(-39.209 -18.779)" opacity="0.423"/><path d="M368.231,361.542c-5.855-1.013-21.085-15.044-21.085-15.044s18.729-8.161,24.577-7.149a10.443,10.443,0,0,1,3.988,1.5,10.966,10.966,0,0,1,3.124,3,11.492,11.492,0,0,1,1.774,4.028,11.765,11.765,0,0,1,.15,4.432,11.588,11.588,0,0,1-1.5,4.148,11.067,11.067,0,0,1-2.915,3.219,10.522,10.522,0,0,1-3.877,1.789,10.28,10.28,0,0,1-4.237.081Z" transform="translate(66.677 759.295) rotate(-106)" opacity="0.423"/><path d="M318.87,375.3s24.812-46.01,62.175-59.3a76.91,76.91,0,0,0,38.745-30.305,137.156,137.156,0,0,0,11.415-21.519" transform="translate(-34.447 -17.402)" fill="none" stroke="#535461" stroke-linecap="round" stroke-miterlimit="10" stroke-width="2"/></g><g transform="translate(-2.109 522.047) rotate(-20)"><path d="M468.243,253.707c-4.257,4.323-24.087,8.8-24.087,8.8s4.862-20.618,9.12-24.941a10.689,10.689,0,0,1,3.525-2.383,10.312,10.312,0,0,1,8.229.134,10.762,10.762,0,0,1,3.452,2.5,11.325,11.325,0,0,1,2.275,3.69,11.741,11.741,0,0,1-.128,8.615,11.289,11.289,0,0,1-2.386,3.613Z" transform="translate(-47.981 -15.44)" fill="#f9a82a" opacity="0.982"/><path d="M455.579,293.431c-5.816,1.21-24.786-6.326-24.786-6.326s14.774-14.538,20.609-15.748a10.369,10.369,0,0,1,7.915,1.812,11.3,11.3,0,0,1,4.455,7.084,11.683,11.683,0,0,1-1.538,8.328,10.755,10.755,0,0,1-6.656,4.835Z" transform="translate(-46.538 -17.864)" fill="#f9a82a" opacity="0.982"/><path d="M410.57,336.683c-5.607-2.038-18.352-18.558-18.352-18.558s19.776-4.731,25.383-2.7a10.926,10.926,0,0,1,6.15,5.716,11.733,11.733,0,0,1,.488,8.593,11.1,11.1,0,0,1-5.46,6.439,10.3,10.3,0,0,1-8.209.51Z" transform="translate(-42.37 -20.744)" fill="#f9a82a" opacity="0.982"/><path d="M368.231,361.542c-5.855-1.013-21.085-15.044-21.085-15.044s18.729-8.161,24.577-7.149a10.443,10.443,0,0,1,3.988,1.5,10.966,10.966,0,0,1,3.124,3,11.492,11.492,0,0,1,1.774,4.028,11.765,11.765,0,0,1,.15,4.432,11.588,11.588,0,0,1-1.5,4.148,11.067,11.067,0,0,1-2.915,3.219,10.522,10.522,0,0,1-3.877,1.789,10.28,10.28,0,0,1-4.237.081Z" transform="translate(-37.501 -22.348)" fill="#f9a82a" opacity="0.982"/><path d="M412.259,270.2c0,6.215,10.745,24.232,10.745,24.232s10.744-18.011,10.744-24.218a11.521,11.521,0,0,0-3.147-7.953,10.407,10.407,0,0,0-15.195,0,11.521,11.521,0,0,0-3.147,7.953Z" transform="translate(-44.535 -16.059)" fill="#f9a82a" opacity="0.982"/><path d="M363.446,299.7c1.773,5.926,17.17,19.761,17.17,19.761s5.11-20.555,3.357-26.481a11.419,11.419,0,0,0-2.01-3.857,10.868,10.868,0,0,0-3.266-2.757,10.317,10.317,0,0,0-8.2-.772,10.62,10.62,0,0,0-3.684,2.1,11.187,11.187,0,0,0-2.634,3.42,11.734,11.734,0,0,0-.737,8.582Z" transform="translate(-39.209 -18.779)" fill="#f9a82a" opacity="0.982"/><path d="M368.231,361.542c-5.855-1.013-21.085-15.044-21.085-15.044s18.729-8.161,24.577-7.149a10.443,10.443,0,0,1,3.988,1.5,10.966,10.966,0,0,1,3.124,3,11.492,11.492,0,0,1,1.774,4.028,11.765,11.765,0,0,1,.15,4.432,11.588,11.588,0,0,1-1.5,4.148,11.067,11.067,0,0,1-2.915,3.219,10.522,10.522,0,0,1-3.877,1.789,10.28,10.28,0,0,1-4.237.081Z" transform="translate(66.677 759.295) rotate(-106)" fill="#f9a82a" opacity="0.982"/><path d="M318.87,375.3s24.812-46.01,62.175-59.3a76.91,76.91,0,0,0,38.745-30.305,137.156,137.156,0,0,0,11.415-21.519" transform="translate(-34.447 -17.402)" fill="none" stroke="#535461" stroke-linecap="round" stroke-miterlimit="10" stroke-width="2"/></g></g></svg>