<svg xmlns="http://www.w3.org/2000/svg" width="358.575" height="26.329" viewBox="0 0 358.575 26.329"><g transform="translate(358.575 26.329) rotate(180)"><path d="M9174,994.436V972.778h358.575V996.81c0,6.008-19-13.758-19-13.758l-6.386-2.672-8.646,3.16-16.062,14.4-9.61-3.5-14.807-14.058h-5.6l-16,14.578-6.146,1.6-7.6-1.6-14.767-14.24h-9.376l-15.581,15.645-11.006-.254-14.941-15.39H9348.2l-14.859,14.649-12.646.36-15.012-15.009-9.857.519-11.763,13.178-9.478,2.687-11.125-7.685-8.847-8.7h-7.649l-6.038,4.11-7.273,8.231-8.324,4.463-7.653-3.107-12.2-12.081-7.6-1.619-5.709,2.892-13.6,13.492Z" transform="translate(-9174 -972.778)" fill="#fff"/><path d="M15.652,12.644c3.557-4.075,5.692-6.987,9.96-6.987s6.4,2.911,9.96,6.987C39.13,17.3,43.4,21.96,51.225,21.96S63.32,17.3,66.877,12.644c3.557-4.075,5.692-6.987,9.96-6.987s6.4,2.911,9.96,6.987c3.557,4.658,7.826,9.315,15.652,9.315S114.545,17.3,118.1,12.644c3.557-4.075,5.692-6.987,9.96-6.987s6.4,2.911,9.96,6.987c3.557,4.658,7.826,9.315,15.652,9.315s12.095-4.658,15.652-9.315c3.557-4.075,5.692-6.987,9.96-6.987s6.4,2.911,9.96,6.987c3.557,4.658,7.826,9.315,15.652,9.315s12.095-4.658,15.652-9.315c3.557-4.075,5.692-6.987,9.96-6.987s6.4,2.911,9.96,6.987c3.557,4.658,7.826,9.315,15.652,9.315s12.095-4.658,15.652-9.315c3.557-4.075,5.692-6.987,9.96-6.987s6.4,2.911,9.96,6.987c3.557,4.658,7.826,9.315,15.652,9.315S319.445,17.3,323,12.644c3.557-4.075,5.692-6.987,9.96-6.987s6.4,2.911,9.96,6.987c3.557,4.658,7.826,9.315,15.652,9.315V17.3c-4.269,0-6.4-2.911-9.96-6.987C345.057,5.658,340.789,1,332.962,1s-12.095,4.658-15.652,9.315c-3.557,4.075-5.692,6.987-9.96,6.987s-6.4-2.911-9.96-6.987C293.832,5.658,289.564,1,281.737,1s-12.095,4.658-15.652,9.315c-3.557,4.075-5.692,6.987-9.96,6.987s-6.4-2.911-9.96-6.987C242.607,5.658,238.339,1,230.512,1s-12.095,4.658-15.652,9.315c-3.557,4.075-5.692,6.987-9.96,6.987s-6.4-2.911-9.96-6.987C191.382,5.658,187.114,1,179.287,1s-12.095,4.658-15.652,9.315c-3.557,4.075-5.692,6.987-9.96,6.987s-6.4-2.911-9.96-6.987C140.157,5.658,135.889,1,128.063,1s-12.095,4.658-15.652,9.315c-3.557,4.075-5.692,6.987-9.96,6.987s-6.4-2.911-9.96-6.987C88.932,5.658,84.664,1,76.838,1S64.743,5.658,61.185,10.315c-3.557,4.075-5.692,6.987-9.96,6.987s-6.4-2.911-9.96-6.987C37.707,5.658,33.439,1,25.612,1S13.518,5.658,9.96,10.315C6.4,14.391,4.269,17.3,0,17.3V21.96C7.826,21.96,12.095,17.3,15.652,12.644Z" transform="translate(0 4.369)" fill="#ff6f91"/></g></svg>