<svg xmlns="http://www.w3.org/2000/svg" xmlns:xlink="http://www.w3.org/1999/xlink" width="544" height="448.188" viewBox="0 0 544 448.188"><defs><linearGradient id="a" x1="0.5" y1="1" x2="0.5" gradientUnits="objectBoundingBox"><stop offset="0" stop-color="gray" stop-opacity="0.251"/><stop offset="0.54" stop-color="gray" stop-opacity="0.122"/><stop offset="1" stop-color="gray" stop-opacity="0.102"/></linearGradient></defs><g transform="translate(0 22.559)"><path d="M291.916,47.009c17.1-15.252,43.944-18.339,68.419-17.168,76.809,3.82,146.142,40.9,206.117,82.844,21.714,15.181,43.089,31.546,57.18,52.458,28.71,42.568,20.179,101.535-19.711,136.6C590.346,313.676,573.893,322.84,557,330.931c-30.035,14.414-62.442,25.986-96.531,29.3-24.3,2.344-48.913.439-73.083-2.836-67.516-9.158-133.79-29.408-189.342-64.048-24.363-15.193-47.337-34.083-57.368-58.663s-3.615-55.727,21.263-70.276c10.289-6.017,22.593-8.736,34.634-11.291,17.73-3.756,35.741-7.459,51.737-15.093,16.529-7.887,36.093-23.138,32.812-40.6C277.619,78.69,274.807,62.243,291.916,47.009Z" transform="translate(-98.977 -52.176)" fill="#f7d070" opacity="0.1"/><ellipse cx="67.404" cy="21.101" rx="67.404" ry="21.101" transform="translate(165.948 378.284)" fill="#f9a826" opacity="0.1"/><path d="M733.95,359.736,736.4,489.7l5.2.613-1.959-131.1Z" transform="translate(-362.378 -177.367)" fill="#f5c5cc"/><path d="M739.87,355.45l2.79,135.268,1.858-2.263-1.959-131.1Z" transform="translate(-365.301 -175.505)" fill="none"/><path d="M709.12,354.906l2.445,129.968,5.2.613-1.959-131.1Z" transform="translate(-350.119 -174.982)" fill="#f5c5cc"/><path d="M715.04,350.62l2.784,135.268,1.863-2.263-1.959-131.1Z" transform="translate(-353.042 -173.12)" fill="none"/><path d="M715.19,339.274l.253,141.754,5.316-.506L718.734,336.49Z" transform="translate(-353.116 -166.144)" fill="#cc929b"/><path d="M425.56,294.776,427.8,412.588l5.2.547L431.25,294.3Z" transform="translate(-210.115 -145.313)" fill="#f5c5cc"/><path d="M431.49,290.89l2.572,122.617,1.868-2.055-1.752-118.835Z" transform="translate(-213.043 -143.63)" fill="#cc929b"/><path d="M447.41,300.666l2.243,117.807,5.2.547L453.1,300.19Z" transform="translate(-220.903 -148.221)" fill="#f5c5cc"/><path d="M453.34,296.77l2.577,122.617,1.863-2.055L456.028,298.5Z" transform="translate(-223.831 -146.533)" fill="#cc929b"/><path d="M468.77,307.051l2.243,117.812,5.2.547L474.46,306.58Z" transform="translate(-231.449 -151.376)" fill="#f5c5cc"/><path d="M474.7,303.17l2.577,122.612,1.863-2.055L477.388,304.9Z" transform="translate(-234.377 -149.693)" fill="#cc929b"/><path d="M489.55,308.336l2.309,121.949,5.2.567-1.823-123Z" transform="translate(-241.709 -152.003)" fill="#f5c5cc"/><path d="M495.47,304.31l2.648,126.92,1.863-2.126-1.823-123Z" transform="translate(-244.632 -150.255)" fill="#cc929b"/><path d="M512.08,310.211l2.314,121.944,5.2.567-1.823-123Z" transform="translate(-252.833 -152.927)" fill="#f5c5cc"/><path d="M518.01,306.19l2.648,126.915,1.863-2.126-1.823-123Z" transform="translate(-255.761 -151.184)" fill="#cc929b"/><path d="M534.22,318.086l2.309,121.949,5.2.567-1.818-123Z" transform="translate(-263.764 -156.817)" fill="#f5c5cc"/><path d="M540.14,314.06l2.648,126.92,1.863-2.126-1.817-123Z" transform="translate(-266.687 -155.069)" fill="#cc929b"/><path d="M559.56,323.271l2.369,125.351,5.2.582L565.25,322.77Z" transform="translate(-276.275 -159.37)" fill="#f5c5cc"/><path d="M565.48,319.14,568.188,449.6l1.863-2.187-1.878-126.434Z" transform="translate(-279.198 -157.578)" fill="#cc929b"/><path d="M581.61,325.9l2.364,125.351,5.2.582L587.3,325.4Z" transform="translate(-287.162 -160.668)" fill="#f5c5cc"/><path d="M587.53,321.76l2.708,130.464,1.863-2.187L590.218,323.6Z" transform="translate(-290.085 -158.871)" fill="#cc929b"/><path d="M604.97,332.506l2.369,125.351,5.2.587L610.66,332.01Z" transform="translate(-298.696 -163.932)" fill="#f5c5cc"/><path d="M610.9,328.37l2.7,130.464,1.863-2.187-1.878-126.434Z" transform="translate(-301.624 -162.135)" fill="#cc929b"/><path d="M405.3,286.15l-.253-7.462,2.633-1.438,188.806,38.724.349,9.472Z" transform="translate(-199.988 -136.895)" fill="#f5c5cc"/><path d="M408.063,277.25l189.5,38.694-.192,3.549L405.82,278.47" transform="translate(-200.368 -136.895)" fill="#cc929b"/><path d="M415.322,463.716l-5.316,1.934h-5.063l-.253-199.741,2.784-3.868,2.688-.79,3.387-.511Z" transform="translate(-199.81 -128.743)" fill="#f5c5cc"/><path d="M420.185,463.716l-5.316,1.934L414.54,266.3l.486-5.052,3.387-.511Z" transform="translate(-204.674 -128.743)" fill="#cc929b"/><path d="M630.35,339.831l2.369,125.346,5.2.587L636.04,339.33Z" transform="translate(-311.227 -167.546)" fill="#f5c5cc"/><path d="M636.27,335.69l2.708,130.464,1.863-2.187-1.878-126.434Z" transform="translate(-314.15 -165.749)" fill="#cc929b"/><path d="M655.92,343.736l2.415,128.029,5.2.6L661.605,343.23Z" transform="translate(-323.852 -169.472)" fill="#f5c5cc"/><path d="M661.84,339.51l2.754,133.248,1.863-2.233-1.929-129.133Z" transform="translate(-326.775 -167.635)" fill="none"/><path d="M682.25,348.356,684.7,478.324l5.2.613-1.954-131.1Z" transform="translate(-336.852 -171.748)" fill="#f5c5cc"/><path d="M688.17,344.07l2.789,135.273,1.858-2.268-1.954-131.1Z" transform="translate(-339.775 -169.886)" fill="#cc929b"/><path d="M274.759,445.522l-5.316.506L269.2,306.2l-.005-1.929,3.544-2.784.056,3.878Z" transform="translate(-132.909 -148.863)" fill="#f5c5cc"/><path d="M311.759,430.022l-5.316.506L306.2,292.987l-.005-4.212,3.544-2.784.081,5.65Z" transform="translate(-151.177 -141.21)" fill="#f5c5cc"/><path d="M372.759,405.022l-5.316.506L367.2,269.723l-.01-5.949,3.544-2.784.111,7.888Z" transform="translate(-181.295 -128.867)" fill="#f5c5cc"/><path d="M399.259,395.022l-5.316.506-.238-132.489-.015-9.265,3.544-2.784.182,12.869Z" transform="translate(-194.379 -123.929)" fill="#f5c5cc"/><path d="M293.259,442.522l-5.316.506-.253-140.741v-1.013l3.544-2.784.035,2.668Z" transform="translate(-142.043 -147.382)" fill="#f5c5cc"/><path d="M347.259,417.522l-5.316.506L341.7,279.94l-.005-3.665,3.544-2.784.071,5.194Z" transform="translate(-168.705 -135.038)" fill="#f5c5cc"/><path d="M329.759,422.522l-5.316.506L324.2,285.775l-.01-4.5,3.544-2.784.081,5.863Z" transform="translate(-160.065 -137.507)" fill="#f5c5cc"/><path d="M322.477,569.48l-1.266,2.658a22.175,22.175,0,0,0-2.911,12.53c.38,7.594-5.3,27.718-5.3,27.718s5.189,2.4,9.113,2.152,12.4,3.924,12.4,3.924l17.577,5.453,35.565,8.353s20.883,11.644,26.579,11.644,28.351,7.721,28.351,7.721,30.629,6.708,33.034,9.239,12.545,5.938,13.558,6.075,16.454,1.645,16.454,1.645,17.972,4.177,20.5-.253a22.824,22.824,0,0,0,2.911-8.1s7.974,1.772,10.125-.886,2.278-8.353,4.809-8.1,12.91,3.417,14.049,2.278,7.214-14.555,11.517-12.53,11.771,5.189,11.771,5.189l-4.3-43.792-1.9-12.024s-68.978,28.1-71.383,28.1S322.477,569.48,322.477,569.48Z" transform="translate(-186.298 -296.18)" fill="#f9a826"/><path d="M576.431,452.143l-.38,61.764L504.4,541.382,322.9,493.16s-12.277-17.339-.886-33.54c0,0-14.682-20.251,3.544-33.413l.451-.106,68.907-16.6,30.644,5.6,135.4,24.766S574.264,444.8,576.431,452.143Z" transform="translate(-187.991 -217.192)" fill="#f9a826"/><path d="M432.492,421.007c-3.417,1.772-28.224,8.227-33.16,12.15s-39.109,6.971-39.109,6.971l-3.8.759s.253-2.531-14.808-9.872a19.2,19.2,0,0,1-6.257-4.916l68.908-16.6,30.644,5.6C434.952,417.524,434.537,419.944,432.492,421.007Z" transform="translate(-197.337 -217.192)" opacity="0.1"/><path d="M321.444,384s-1.266,24.554,13.8,31.895,14.823,9.862,14.823,9.862l3.8-.759s-13.163-14.682-12.277-17.213-11.771-15.314-13.558-15.821S321.444,384,321.444,384Z" transform="translate(-190.454 -204.602)" fill="#f9a826"/><path d="M321.974,384.73s-1.266,24.554,13.8,31.895,14.808,9.872,14.808,9.872l3.8-.759s-13.163-14.682-12.277-17.213S330.313,393.21,328.556,392.7,321.974,384.73,321.974,384.73Z" transform="translate(-190.716 -204.962)" opacity="0.1"/><path d="M329,405.23s12.15,18.352,14.3,18.985S331.9,405.483,329,405.23Z" transform="translate(-194.197 -215.084)" opacity="0.1"/><path d="M318,351.11s7.847-6.328,8.86-7.594,12.15-1.772,12.53-1.772,8.86-5.189,18.352-6.835,13.289-2.4,13.289-2.4,13.922-5.822,14.682-7.088,7.214-2.658,15.188,3.544,25.566,34.046,25.693,37.084,1.266,8.606-2.152,10.378-28.224,8.227-33.16,12.15-39.124,6.971-39.124,6.971l-12.895-14.059-6.835-11.011-11.391-12.024Z" transform="translate(-188.766 -175.139)" fill="#f9a826"/><path d="M357.013,593.15s-4.723,1.013-2.025,3.711S357.013,593.15,357.013,593.15Z" transform="translate(-206.617 -307.867)" opacity="0.1"/><path d="M388.39,603.82s-5.063,6.075-4.05,7.761S388.39,603.82,388.39,603.82Z" transform="translate(-221.454 -313.135)" opacity="0.1"/><path d="M447.06,619.15s-5.063,6.075-4.05,7.761S447.06,619.15,447.06,619.15Z" transform="translate(-250.422 -320.704)" opacity="0.1"/><path d="M518.39,639.15s-5.063,6.075-4.05,7.761S518.39,639.15,518.39,639.15Z" transform="translate(-285.64 -330.579)" opacity="0.1"/><path d="M614.39,663.15s-5.063,6.075-4.05,7.761S614.39,663.15,614.39,663.15Z" transform="translate(-333.039 -342.429)" opacity="0.1"/><path d="M417.06,607.15s-5.063,6.075-4.05,7.761S417.06,607.15,417.06,607.15Z" transform="translate(-235.61 -314.779)" opacity="0.1"/><path d="M556.39,649.15s-5.063,6.075-4.05,7.761S556.39,649.15,556.39,649.15Z" transform="translate(-304.402 -335.516)" opacity="0.1"/><path d="M585.719,658.48s-5.063,6.075-4.05,7.766S585.719,658.48,585.719,658.48Z" transform="translate(-318.883 -340.123)" opacity="0.1"/><path d="M473.06,627.15s-5.063,6.075-4.05,7.761S473.06,627.15,473.06,627.15Z" transform="translate(-263.259 -324.654)" opacity="0.1"/><path d="M729.14,699.82l5.356,24.761S734.537,707.242,729.14,699.82Z" transform="translate(-391.761 -360.534)" opacity="0.1"/><path d="M761.8,707.15l3.756,12.074S765.177,714.577,761.8,707.15Z" transform="translate(-407.887 -364.153)" opacity="0.1"/><path d="M787.27,704.945s-8.014-29.191-9.705-31.216S782.446,703.092,787.27,704.945Z" transform="translate(-415.536 -347.605)" opacity="0.1"/><path d="M809.364,689.118s-9.447-16.535-5.736-19.572S809.364,689.118,809.364,689.118Z" transform="translate(-428.112 -345.448)" opacity="0.1"/><path d="M327.47,508.431,510.9,549.61l70.543-20.59-71.216,18.565S333.039,506.745,327.47,508.431Z" transform="translate(-193.442 -266.013)" opacity="0.1"/><path d="M275.69,390.12l.253,117.833,5.189.633.253-118.845Z" transform="translate(-136.118 -192.435)" fill="#f5c5cc"/><path d="M281.69,386.24l.506,122.642,1.9-2.025.253-118.845Z" transform="translate(-139.081 -190.707)" fill="#cc929b"/><path d="M297.44,396.37l.253,117.833,5.189.633.253-118.845Z" transform="translate(-146.857 -195.521)" fill="#f5c5cc"/><path d="M303.44,392.49l.506,122.642,1.9-2.025.253-118.845Z" transform="translate(-149.82 -193.793)" fill="#cc929b"/><path d="M318.69,403.12l.253,117.833,5.189.633.253-118.845Z" transform="translate(-157.349 -198.854)" fill="#f5c5cc"/><path d="M324.69,399.24l.506,122.642,1.9-2.025.253-118.845Z" transform="translate(-160.311 -197.126)" fill="#cc929b"/><path d="M339.44,404.755l.253,121.969,5.189.653.253-123.017Z" transform="translate(-167.594 -199.654)" fill="#f5c5cc"/><path d="M345.44,400.74l.506,126.945,1.9-2.1.253-123.017Z" transform="translate(-170.556 -197.867)" fill="#cc929b"/><path d="M361.94,407l.253,121.969,5.189.653.253-123.017Z" transform="translate(-178.703 -200.765)" fill="#f5c5cc"/><path d="M367.94,402.99l.506,126.945,1.9-2.1.253-123.017Z" transform="translate(-181.666 -198.977)" fill="#cc929b"/><path d="M383.94,415.255l.253,121.969,5.189.653.253-123.017Z" transform="translate(-189.565 -204.838)" fill="#f5c5cc"/><path d="M389.94,411.24l.506,126.945,1.9-2.1.253-123.017Z" transform="translate(-192.528 -203.051)" fill="#cc929b"/><path d="M409.19,420.865l.253,125.371,5.189.673.253-126.449Z" transform="translate(-202.032 -207.603)" fill="none"/><path d="M415.19,416.74l.506,130.489,1.9-2.157.253-126.449Z" transform="translate(-204.995 -205.766)" fill="#cc929b"/><path d="M431.19,423.865l.253,125.371,5.189.673.253-126.449Z" transform="translate(-212.894 -209.084)" fill="#f5c5cc"/><path d="M437.19,419.74l.506,130.489,1.9-2.157.253-126.449Z" transform="translate(-215.857 -207.247)" fill="#cc929b"/><path d="M454.44,430.865l.253,125.371,5.189.673.253-126.449Z" transform="translate(-224.374 -212.54)" fill="#f5c5cc"/><path d="M460.44,426.74l.506,130.489,1.9-2.157.253-126.449Z" transform="translate(-227.336 -210.704)" fill="#cc929b"/><path d="M479.69,438.615l.253,125.371,5.189.673.253-126.449Z" transform="translate(-236.841 -216.367)" fill="#f5c5cc"/><path d="M485.69,434.49l.506,130.489,1.9-2.157.253-126.449Z" transform="translate(-239.803 -214.53)" fill="#cc929b"/><path d="M505.19,442.955,505.443,571l5.189.688.253-129.148Z" transform="translate(-249.431 -218.505)" fill="#f5c5cc"/><path d="M511.19,438.74l.506,133.274,1.9-2.2.253-129.148Z" transform="translate(-252.393 -216.628)" fill="#cc929b"/><path d="M531.44,448.02l.253,129.993,5.189.7.253-131.112Z" transform="translate(-262.392 -221.003)" fill="#cc929b"/><path d="M537.44,443.74l.506,135.3,1.9-2.233.253-131.112Z" transform="translate(-265.354 -219.097)" fill="none"/><path d="M558.19,455.02l.253,129.993,5.189.7.253-131.112Z" transform="translate(-275.599 -224.459)" fill="#f5c5cc"/><path d="M564.19,450.74l.506,135.3,1.9-2.233.253-131.112Z" transform="translate(-278.561 -222.553)" fill="#cc929b"/><path d="M582.94,460.27l.253,129.993,5.189.7.253-131.112Z" transform="translate(-287.819 -227.051)" fill="#cc929b"/><path d="M588.94,455.99l.506,135.3,1.9-2.233.253-131.112Z" transform="translate(-290.781 -225.145)" fill="none"/><path d="M251.822,483.339l-5.316,2.025h-5.063l-.253-185.8,2.784-4.05,2.688-.825,3.893-1.2Z" transform="translate(-119.084 -144.913)" fill="#f5c5cc"/><path d="M256.685,483.339l-5.316,2.025-.329-185.388.486-5.285,3.893-1.2Z" transform="translate(-123.948 -144.913)" fill="#cc929b"/><circle cx="6.075" cy="6.075" r="6.075" transform="translate(121.852 334.122)" fill="#40414d"/><path d="M788.822,526.1l-5.316,1.934h-5.063l-.253-204.3,2.784.689,2.688-.79,3.893-1.144Z" transform="translate(-384.221 -159.232)" fill="#f5c5cc"/><path d="M793.685,526.1l-5.316,1.934-.329-199.346.486-5.053,3.893-1.144Z" transform="translate(-389.084 -159.232)" fill="#cc929b"/><path d="M648.259,508.522l-5.316.506L642.7,372.545l-.01-5.27,3.544-2.784.1,7.275Z" transform="translate(-317.32 -179.969)" fill="#f5c5cc"/><path d="M685.259,493.022l-5.316.506-.238-133.962-.015-7.791,3.544-2.784.132,9.244Z" transform="translate(-335.588 -172.316)" fill="#f5c5cc"/><path d="M746.259,468.022l-5.316.506-.238-133.648-.015-8.105,3.544-2.784.132,9.371Z" transform="translate(-365.706 -159.972)" fill="#f5c5cc"/><path d="M767.19,316.774l.253,141.754,5.316-.506L770.734,313.99Z" transform="translate(-378.79 -155.035)" fill="#f5c5cc"/><path d="M666.759,505.522l-5.316.506L661.2,368.77l-.01-4.5,3.544-2.784.086,6.181Z" transform="translate(-326.454 -178.487)" fill="#f5c5cc"/><path d="M703.259,485.522l-5.316.506-.238-133.608-.015-8.146,3.544-2.784.132,9.457Z" transform="translate(-344.475 -168.613)" fill="#f5c5cc"/><path d="M723.589,478.852l-5.316.506-.238-133.608v-.795l-.015-7.351,3.544-2.784.122,8.637.01.82Z" transform="translate(-354.513 -165.319)" fill="#f5c5cc"/><path d="M632.69,616.711,706.1,585.49l5.063,1.18.167,11.644-77.286,29.87Z" transform="translate(-312.382 -289.084)" fill="#f5c5cc"/><path d="M706.1,585.49,632.69,616.711l78.2-30.107" transform="translate(-312.382 -289.084)" fill="#cc929b"/><path d="M256.363,614.49l185.125,56.2-.339,9.113L255.69,622.59Z" transform="translate(-126.244 -303.403)" fill="#f5c5cc"/><path d="M691.052,610.257l-5.316,2.025h-5.063l-.253-208.074h0V403.2l.395-.577,2.39-3.473,2.688-.825,3.893-1.2.04,7.088Z" transform="translate(-367.706 -211.08)" fill="#f5c5cc"/><path d="M633.185,580.627l-5.316,2.025-.329-208.677.486-5.285,3.893-1.2Z" transform="translate(-309.84 -181.45)" fill="#cc929b"/><path d="M689.786,397.12l.041,7.088a43.165,43.165,0,0,1-4.42.415c-3.645.142-4.987-.41-4.987-.41h0c0-.071.142-.638.395-1.585l2.39-3.473,2.688-.825Z" transform="translate(-367.706 -211.08)" opacity="0.1"/><path d="M708.974,394.12l.1,7.275q-1.959.456-3.635.78V396.9Z" transform="translate(-380.06 -209.599)" opacity="0.1"/><path d="M727.474,391.12l.086,6.181c-1.261.4-2.471.764-3.62,1.1v-4.5Z" transform="translate(-389.194 -208.117)" opacity="0.1"/><path d="M745.979,378.62l.132,9.244q-1.9.7-3.66,1.331V381.4Z" transform="translate(-398.333 -201.946)" opacity="0.1"/><path d="M763.979,371.12l.132,9.457-2.916,1.175-.744.3V373.9Z" transform="translate(-407.22 -198.243)" opacity="0.1"/><path d="M807.11,363l-3.66,1.519v-8.1l3.544-2.784Z" transform="translate(-428.451 -189.607)" opacity="0.1"/><path d="M784.44,373.107l-3.65,1.519v-7.351l3.544-2.784Z" transform="translate(-417.263 -194.969)" opacity="0.1"/><path d="M774.079,340.783s-9.366,0-11.9-.759-7.847,2.278-40.5,15.441c-19.744,7.964-30.7,9.811-36.274,10.029-3.645.142-4.987-.41-4.987-.41s6.667-30.588,27.9-36.3a62.969,62.969,0,0,0,6.971-2.344l.41-.157a41.5,41.5,0,0,1,5.473-1.7c6.814-1.564,11.679-4.556,24-4.647a33.692,33.692,0,0,1,21.152,7.017C770.545,330.273,774.185,334.865,774.079,340.783Z" transform="translate(-367.706 -172.969)" fill="#cc929b"/><path d="M716.618,332.12c-26.275,11.33-30.285,32.507-31.211,39.392-3.645.142-4.987-.41-4.987-.41s6.667-30.588,27.9-36.3a62.975,62.975,0,0,0,6.971-2.344l.41-.157C716.005,332.252,716.309,332.191,716.618,332.12Z" transform="translate(-367.706 -178.987)" fill="#f5c5cc"/><path d="M335.469,331.12l.056,3.878c-1.281.319-2.476.6-3.594.835V333.9Z" transform="translate(-195.644 -178.493)" opacity="0.1"/><path d="M353.964,328.12l.035,2.668q-1.868.618-3.579,1.129V330.9Z" transform="translate(-204.773 -177.012)" opacity="0.1"/><path d="M372.469,315.62l.081,5.65q-1.868.714-3.62,1.347V318.4Z" transform="translate(-213.912 -170.84)" opacity="0.1"/><path d="M390.474,308.12l.081,5.863q-1.747.673-3.615,1.423v-4.5Z" transform="translate(-222.804 -167.137)" opacity="0.1"/><path d="M407.969,303.12l.071,5.194q-1.721.577-3.61,1.256V305.9Z" transform="translate(-231.44 -164.668)" opacity="0.1"/><path d="M433.474,290.62l.111,7.888c-1.119.233-2.329.506-3.645.845V293.4Z" transform="translate(-244.035 -158.497)" opacity="0.1"/><path d="M460.161,293.449a13.349,13.349,0,0,0-3.711-.82v-9.265l3.544-2.784Z" transform="translate(-257.124 -153.54)" opacity="0.1"/><path d="M397.579,287.086s-9.366,0-11.9-.759-7.847-4.81-40.5,8.353c-19.744,7.964-30.7,9.811-36.274,10.029-3.645.142-4.987-.41-4.987-.41s5.027-26.579,27.2-31.064a32.583,32.583,0,0,0,3.66-.937c1.362-.446,3.508-1.083,6.394-1.747a133.8,133.8,0,0,1,36.178-2.795,22.438,22.438,0,0,1,15.082,6.612,17.37,17.37,0,0,1,5.149,12.717Z" transform="translate(-181.814 -147.116)" fill="#cc929b"/><path d="M341.171,273.46c-26.275,11.33-31.338,27.272-32.264,34.158-3.645.142-4.987-.41-4.987-.41s5.027-26.579,27.2-31.064a32.582,32.582,0,0,0,3.66-.937C336.139,274.746,338.285,274.123,341.171,273.46Z" transform="translate(-181.814 -150.024)" fill="#f5c5cc"/><path d="M255.567,381.1l-.127-7.467,2.658-1.392,181.748,40.754-.506,9.492Z" transform="translate(-126.12 -183.795)" fill="#f5c5cc"/><path d="M258.483,372.24l181.748,40.754-.253,3.544L256.22,373.425" transform="translate(-126.505 -183.795)" fill="#cc929b"/><circle cx="6.075" cy="6.075" r="6.075" transform="translate(393.21 362.726)" fill="#40414d"/><circle cx="6.075" cy="6.075" r="6.075" transform="translate(312.714 397.152)" fill="#40414d"/><path d="M324.749,579.45s-5.4,6.075-7.088,11.477,2.025,25.652,2.025,25.652a37.284,37.284,0,0,0,4.05-10.8C325.083,599.366,324.749,579.45,324.749,579.45Z" transform="translate(-188.382 -301.103)" fill="#f9a826"/><path d="M833.729,679.12s3.291,16.707,3.544,19.238-8.353-1.266-8.353-1.266Z" transform="translate(-441.026 -350.314)" fill="#f9a826"/><path d="M515.281,164.83h-.086a1.013,1.013,0,0,0-.187-.476,2.486,2.486,0,0,0-.84-.638l-2.374-1.321,2.05.744a4.583,4.583,0,0,0-.319-.476l.238.132-.162-.228-.218-.076A6.005,6.005,0,0,0,508.7,160.7h.03c.228-.03.461-.051.689-.066a8.219,8.219,0,0,0-1.519.046h0a.71.71,0,0,0,.177.051,4.758,4.758,0,0,0-.506.051,1.518,1.518,0,0,1-.795,0,1.149,1.149,0,0,1-.613-.835,9.255,9.255,0,0,1,.263-3.159,3.387,3.387,0,0,0-.157-1.473v-.3a1.519,1.519,0,0,0-1.013-.932.95.95,0,0,0,0,.116l-.086-.035v2.724a10.86,10.86,0,0,1-2.071-2.157.947.947,0,0,1-.208-.43c-.051-.461.537-.78.572-1.245a.694.694,0,0,0-.506-.658l.152-.056a1.139,1.139,0,0,0-.577-.1,9.7,9.7,0,0,0-1.276.385l.132.025a2.877,2.877,0,0,1-.3.081c-1.271.263-2.4-.749-3.321-1.666l-.2-.2c-.435-3.812-1.139-8.181-1.139-8.181a54.431,54.431,0,0,0-1.519-7.675c-.886-2.683-2.162-7.422-2.162-7.422s-2.916-5.756-3.544-6.009a7.725,7.725,0,0,1-.714-.4,11.336,11.336,0,0,1-.506-2.653c-.157-5.032,5.22-8.606,6.03-13.593.663-4.05-1.888-8.1-1.519-12.206a44.34,44.34,0,0,1,1.286-5.25,14.139,14.139,0,0,0,.147-5.2,8.571,8.571,0,0,0-.83-2.668,14.411,14.411,0,0,0,1.828-3.093c.82-2.339-.066-4.951-1.347-7.088-4.116-6.8-12.454-12.15-20.251-12.844-3.144-.289-6.3-.344-9.447-.395-3.615-.066-7.351-.106-10.692,1.291-6.642,2.779-9.786,10.206-13.821,16.2a45.929,45.929,0,0,1-12.565,12.54c-2.334,1.559-5.063,3.22-5.609,5.989a5.453,5.453,0,0,0-.1.8,7.412,7.412,0,0,1-.167-.739c-.552,2.891,1.488,5.569,2.531,8.328a14.682,14.682,0,0,1,.932,4.5,19.671,19.671,0,0,0,0-2.187c1.013,5.255-.845,10.895-1.995,16.266-.086.395-.152.79-.233,1.185a9.685,9.685,0,0,0-2.663,1.2,14.976,14.976,0,0,1-5.984,2.329,11.178,11.178,0,0,0-7.2,4.323c-.324.435-.638.734-.911.764-1.139.132-7.488,19.957-7.488,19.957s-1.321,8.166-1.321,10.08-2.283,15.735-2.283,15.735a10.439,10.439,0,0,0-.506,3.579,16,16,0,0,1-.532,4.1.911.911,0,0,1-.354-.263c-.38-.764-7.366,0-5.2,5.118a10.034,10.034,0,0,0,2.445,3.635c-.962,2.41-1.8,4.653-1.686,4.936,0,0,0,1.828.162,4.086-1.483,1.013-2.7,1.924-2.7,1.924-.106,2.795,1.757,3.24,3.508,3.139.451,1.62,1.109,2.906,2.076,3.255,3.174,1.154,5.2.643,6.222,1.519s6.445,2.577,6.445,2.577a64.178,64.178,0,0,0,6.956.663l.932.466-.111-.506c.3-.056.162-.41-.213-1.013-.167-.775-.38-1.787-.618-2.941l1.392-.506.38.562c-.506,2.653-.83,4.42-.83,4.42s-2.531,9.082-1.4,10.49,0,3.2,0,3.2-.253,2.3.385,2.3,1.392,2.941.759,3.073-3.544,2.557-2.531,3.068,0,1.661,0,2.815c0,.84,1.549,2.086,2.39,2.7-.152.547-.309,1.129-.456,1.7a14.385,14.385,0,0,0-.668,3.913c.253,1.407-.633,5.371-.38,6.652s1.144,4.091.506,5.245.127,4.987.127,4.987l1.144,10.869s-.759,3.073,0,3.837,1.4,9.725,2.157,10.748,1.909,6.394,1.013,8.186,1.144,5.5,1.144,5.5-.127,4.349-.127,5.5a7.561,7.561,0,0,0,1.139,2.941s1.144,6.141,1.013,7.675a10.118,10.118,0,0,0,.759,3.711,41.2,41.2,0,0,1,.638,5.5,4.342,4.342,0,0,0,1.013,2.43s1.4,3.326,1.013,4.734a3.5,3.5,0,0,0,.886,2.815s-.127,3.068-.127,3.453a26.947,26.947,0,0,0,2.668,3.453s-1.144,2.3-.506,3.2.506,4.091,1.519,5.118.759,5.24,2.025,6.009,2.41,1.407,2.663,3.068,1.271,4.1,2.415,4.48a2.2,2.2,0,0,1,.557.552l-.506,2.152-1.564,6.505s-1.519,9.462-1.4,10.869-1.519,2.815-1.519,2.815-1.4,8.186-1.65,9.209a9.15,9.15,0,0,0,.127,2.941s-.886,4.86-.253,5.118a28.25,28.25,0,0,1,3.3,2.941h.208l-.273.962-4.379,15.542s-4.05,6.779,5.336,10.232c.314.608.6.623.263.506.309.263,6.581,5.569,7.088,8.055s4.825,5.113,6.349,5.371,11.679,8.439,15.36.385-6.475-13.3-6.475-13.3l-7.731-4.977s-3.934-5.756-4.556-6.779-1.777-6.014-1.013-6.779c.39-.395,1.61-3.9,2.714-7.229.1-.319.208-.633.309-.947a8.711,8.711,0,0,0,4.6-.506l5.655-8.92,1.013-1.564.182.365s4.7.385,6.981.77a6.581,6.581,0,0,0,2.147-.268c.086.187.172.38.253.572a27.994,27.994,0,0,1,1.407,3.66c.38,1.661.764,7.543.764,7.543s-2.531,8.444-3.174,9.978.633,14.327,13.2,9.209c0,0,1.519-2.43,2.916-2.43s4.825-3.453,3.544-7.164-6.581-15.092-2.916-21.1c2.957-4.84,2.719-11.33-1.256-14.348-.167-.127-.344-.238-.506-.349a14.5,14.5,0,0,0,0-1.934c-.891-12.277-6.581-12.92-6.581-12.92s-3.3-.764-3.681-2.025c-.223-.739-3.083-4.556-5.453-7.66.081-.132.157-.263.233-.395,0-.046.051-.091.071-.137.111-.208.218-.42.319-.643,1.843-4.141,1.367-10.166,1.271-11.244-.127-1.407,0-3.2,0-5.245s2.025-5.118,1.777-6.268,2.415-5.883,2.415-7.037,1.868-8.065,1.868-8.065,3.681-7.933,4.445-10.237c.729-2.207,13.73-42.445,14.783-45.705a1.96,1.96,0,0,1,.071-.213s4.151-13.583,1.372-22.5a14.3,14.3,0,0,0-.653-1.726c.851-.41,1.438-.709,1.438-.709s-1.65-4.86-.891-6.652.253-5.245.253-5.245-3.038-1.792-3.169-2.557-1.4-1.792-1.013-2.815,2.531-.506,2.283-2.815-2.916-4.734-2.663-6.141,1.266-3.964,0-5.5a10.825,10.825,0,0,1-1.9-5.883c-.035-.506.076-2,.253-3.969a44.577,44.577,0,0,0,4.187,2.3s5.458.77,5.716.258a12.033,12.033,0,0,1,1.65-1.792c6.855-1.661,3.807-14.175,3.807-14.175s-.1-.916-.263-2.425a1.331,1.331,0,0,0,.476-.228c.582-.425.724-1.235,1.078-1.873a9.3,9.3,0,0,1,1.407-1.65,16.143,16.143,0,0,0,2.719-4.83c.456-1.094.921-2.187,1.382-3.286a5.833,5.833,0,0,1,6.252-4.46,5.29,5.29,0,0,0-1.21-3.1,3.109,3.109,0,0,1,2.663.4,1.073,1.073,0,0,0,.056-.106h.03A.684.684,0,0,0,515.281,164.83ZM406.875,199.858c.03-.253.076-.506.132-.759.248-.233.547-.506.866-.759l1.772.172c-.435.354-.815.678-1.124.942A1.533,1.533,0,0,0,406.875,199.858Zm3.544-3.508a2.723,2.723,0,0,0,.734-.157H412.7c-.845.592-1.7,1.25-2.46,1.863l.177-1.666Zm2.921-25.819s-.116,3.635.142,7.29c-.395.278-.8.582-1.21.9l.9-8.429Z" transform="translate(-222.311 -42.735)" fill="url(#a)"/><path d="M554.253,749.7c-1.392,0-2.911,2.4-2.911,2.4-12.53,5.063-13.8-7.594-13.163-9.113s3.164-9.872,3.164-9.872-.38-5.822-.759-7.467a28.228,28.228,0,0,0-1.4-3.62c-.851-1.939-1.762-3.848-1.762-3.848s5.442-13.416,12.657-12.15a8.141,8.141,0,0,1,3.544,1.519c3.964,2.987,4.2,9.411,1.25,14.175-3.67,5.949,1.645,17.213,2.911,20.883S555.645,749.7,554.253,749.7Z" transform="translate(-297.102 -363.562)" fill="#fdc2cc"/><path d="M498.61,790.929c-3.67,7.974-13.8-.127-15.314-.38s-5.822-2.784-6.328-5.316-6.769-7.71-7.088-7.969c.339.106.051.091-.263-.506-9.366-3.417-5.316-10.125-5.316-10.125l4.364-15.38,1.2-4.237,13.669-.886s-.937,2.992-1.979,6.136c-1.1,3.3-2.314,6.764-2.7,7.154-.759.759.38,5.7,1.013,6.708s4.556,6.708,4.556,6.708l7.721,4.936S502.28,782.956,498.61,790.929Z" transform="translate(-260.57 -383.399)" fill="#fdc2cc"/><path d="M488.664,746.12s-.937,2.992-1.979,6.136a3.639,3.639,0,0,1-1.817-1.2l-11.011.253-.066-.066,1.2-4.237Z" transform="translate(-265.685 -383.394)" opacity="0.1"/><path d="M529.848,467.359a.548.548,0,0,1-.066.208c-1.053,3.225-14.013,43.032-14.742,45.23-.759,2.278-4.43,10.125-4.43,10.125s-1.9,6.835-1.9,7.974-2.658,5.822-2.4,6.961-1.772,4.177-1.772,6.2-.127,3.8,0,5.189c.1,1.068.567,7.032-1.271,11.138a7.488,7.488,0,0,1-1.747,2.531,5.418,5.418,0,0,1-.653.506c-4.556,3.038-4.936,34.173-4.936,34.173l-.213.334-1.848,2.9-5.66,8.809s-4.556,1.9-6.708-.759l-11.011.253a27.719,27.719,0,0,0-3.291-2.911c-.633-.253.253-5.063.253-5.063a8.964,8.964,0,0,1-.127-2.911c.253-1.013,1.645-9.113,1.645-9.113s1.645-1.392,1.519-2.784,1.392-10.758,1.392-10.758l1.559-6.435.77-3.174L475.8,559.4l10.758-95.051,13.669-4.177,26.326,1.266,2.886,5.214Z" transform="translate(-262.318 -242.21)" fill="#5f5d7e"/><path d="M499.825,514.027c-.127,2.4-.759,6.075-.506,8.227s1.139,10.252.759,11.771,1.392,3.291,2.025,4.05.253,3.038.38,4.81a6.474,6.474,0,0,0,1.772,3.417s-1.9,4.05-.506,4.683,4.3,6.455,4.3,6.455.977,1.23,2.273,2.9a6.941,6.941,0,0,1-2.4,3.038c-4.556,3.038-4.936,34.173-4.936,34.173l-.213.334-2.825-5.65s-16.833-25.44-17.972-25.819a1.782,1.782,0,0,1-.709-.506l1.595-6.581,10.758-95.051,13.669-4.177,26.326,1.266-13.861,1.392s-6.161,4.42-6.2,4.556L502.482,472l-2.025,30.376S499.951,511.622,499.825,514.027Z" transform="translate(-269.379 -242.175)" opacity="0.1"/><path d="M535.753,466.625c-.349,1.407-36.805-2.81-36.805-2.81l.253,9.746-2.025,30.376s-.506,9.239-.633,11.644-.759,6.075-.506,8.227,1.139,10.252.759,11.771,1.392,3.291,2.025,4.05.253,3.038.38,4.81a6.475,6.475,0,0,0,1.772,3.417s-1.9,4.05-.506,4.683,4.3,6.455,4.3,6.455,1.392,1.757,3.038,3.913a5.416,5.416,0,0,1-.653.506c-4.556,3.038-4.936,34.173-4.936,34.173l-.213.334-1.828,2.906-3.508-7.012s-12.986-19.628-16.919-24.66l.77-3.174,1.595-6.581,10.758-95.051,13.669-4.177,26.326,1.266Z" transform="translate(-268.628 -242.21)" opacity="0.1"/><path d="M553.636,707.536c-.506,9.062-10.054,13.5-14.454,14.5-.851-1.939-1.762-3.848-1.762-3.848s5.442-13.416,12.657-12.15a8.141,8.141,0,0,1,3.559,1.5Z" transform="translate(-297.102 -363.562)" opacity="0.1"/><path d="M475.006,490.862c-.127,2.4-.759,6.075-.506,8.227s1.139,10.252.759,11.771,1.392,3.291,2.025,4.05.253,3.038.38,4.809a6.474,6.474,0,0,0,1.772,3.417s-1.9,4.05-.506,4.683,4.3,6.455,4.3,6.455,8.227,10.378,8.606,11.644,3.67,2.025,3.67,2.025,5.7.633,6.581,12.783-14.049,16.833-16.327,16.454-6.961-.759-6.961-.759l-3.67-7.341S458.3,543.64,457.16,543.26s-2.152-2.784-2.4-4.43-1.392-2.278-2.658-3.038-1.013-4.936-2.025-5.949-.886-4.177-1.519-5.063.506-3.164.506-3.164A26.767,26.767,0,0,1,446.4,518.2c0-.38.127-3.417.127-3.417a3.456,3.456,0,0,1-.886-2.784c.38-1.392-1.013-4.683-1.013-4.683a4.274,4.274,0,0,1-1.013-2.4,40.52,40.52,0,0,0-.633-5.442,10.017,10.017,0,0,1-.759-3.67c.127-1.519-1.013-7.594-1.013-7.594a7.427,7.427,0,0,1-1.139-2.911c0-1.139.127-5.442.127-5.442s-2.025-3.67-1.139-5.442-.253-7.088-1.013-8.1-1.392-9.872-2.152-10.632,0-3.8,0-3.8l-1.139-10.758s-.759-3.8-.127-4.936-.253-3.924-.506-5.189.633-5.189.38-6.581a14.243,14.243,0,0,1,.663-3.873c.6-2.309,1.362-4.734,1.362-4.734s65.055-6.075,74.421.253a10.615,10.615,0,0,1,4.05,5.827c2.769,8.829-1.372,22.276-1.372,22.276l-35.945,4.683-2.025,30.376S475.132,488.457,475.006,490.862Z" transform="translate(-246.079 -219.01)" fill="#5f5d7e"/><path d="M494.42,653.745s11.264-3.417,13.922-1.139S494.42,653.745,494.42,653.745Z" transform="translate(-275.871 -336.836)" opacity="0.1"/><path d="M502.42,680.787a9.4,9.4,0,0,1,8.48-2.531,13.8,13.8,0,0,0,8.86-.886Z" transform="translate(-279.821 -349.449)" opacity="0.1"/><path d="M525.92,691.783s9.239-1.266,9.619-.127S525.92,691.783,525.92,691.783Z" transform="translate(-291.424 -356.268)" opacity="0.1"/><path d="M520.176,705.091s10.252-3.038,10.758-1.772-11.264,1.645-11.264,1.645Z" transform="translate(-288.338 -362.109)" opacity="0.1"/><path d="M535.262,572.37s-9.619,8.48-8.227,9.366S535.262,572.37,535.262,572.37Z" transform="translate(-291.907 -297.607)" opacity="0.1"/><path d="M527.92,613.87s6.708,0,5.442,1.519S527.92,613.87,527.92,613.87Z" transform="translate(-292.411 -318.097)" opacity="0.1"/><path d="M533.85,625.62s-2.658,2.278-2.025,2.784S533.85,625.62,533.85,625.62Z" transform="translate(-294.291 -323.899)" opacity="0.1"/><path d="M478.17,732.87s8.353,2.784,8.48,4.556S478.17,732.87,478.17,732.87Z" transform="translate(-267.848 -376.852)" opacity="0.1"/><path d="M509.37,186.69l-2.658,15.821s-23.035,12.15-23.415,12.15-16.833-2.784-17.466-2.784-11.391-32.527-3.8-34.552a49.613,49.613,0,0,0,8.293-3.5c8.779-4.389,19.552-11.057,19.552-11.057s16.074-1.772,12.15,9.366c-1.519,4.369-.739,7.548.795,9.8A13.685,13.685,0,0,0,509.37,186.69Z" transform="translate(-258.547 -95.321)" fill="#fdc2cc"/><path d="M509.37,197.574l-2.658,15.821s-23.035,12.15-23.415,12.15-16.833-2.784-17.466-2.784-11.391-32.527-3.8-34.552a49.616,49.616,0,0,0,8.293-3.5c2.071.137,3.478.334,3.478.334s5.063,19.365,5.442,25.313,13.543,6.581,14.428,6.328,4.556-14.808,4.556-14.808-.38-5.063.759-5.063c.952,0,3.149-3.038,3.832-3.994A13.685,13.685,0,0,0,509.37,197.574Z" transform="translate(-258.547 -106.205)" opacity="0.1"/><path d="M516.023,421.894c-1.762.861-5.974,2.825-7.088,2.531a27.5,27.5,0,0,0-4.81-.38s-2.025,2.278-4.177,1.772-10.632-.127-10.632-.127-15.188.633-18.1-.38-13.289-1.9-13.289-1.9-14.175-1.645-16.58-2.658a4.146,4.146,0,0,0-4.177.506s-.44-.289-.982-.709c.6-2.309,1.362-4.734,1.362-4.734s65.055-6.075,74.421.253A10.484,10.484,0,0,1,516.023,421.894Z" transform="translate(-247.121 -219.015)" opacity="0.1"/><path d="M449.532,184.964s-12.783-1.772-17.846,1.645a14.975,14.975,0,0,1-5.964,2.3,11.163,11.163,0,0,0-7.179,4.278c-.324.435-.638.729-.906.759-1.139.127-7.467,19.744-7.467,19.744l15.314,21.39s-.38,11.9,1.772,14.175-3.038,28.351-3.038,28.351-2.531,8.986-1.392,10.378,0,3.164,0,3.164-.253,2.278.38,2.278,1.392,2.911.759,3.038-3.544,2.531-2.531,3.038,0,1.645,0,2.784,2.911,3.038,2.911,3.038a4.146,4.146,0,0,1,4.177-.506c2.4,1.013,16.58,2.658,16.58,2.658s10.378.886,13.289,1.9,18.1.38,18.1.38,8.48-.38,10.631.127,4.177-1.772,4.177-1.772a27.5,27.5,0,0,1,4.81.38c1.392.38,7.847-2.911,7.847-2.911s-1.645-4.81-.886-6.581.253-5.189.253-5.189-3.038-1.772-3.164-2.531-1.392-1.772-1.013-2.784,2.531-.506,2.278-2.784-2.911-4.683-2.658-6.075,1.266-3.924,0-5.442a10.635,10.635,0,0,1-1.9-5.822c-.127-1.9,1.9-19.111,1.9-19.111l-4.683-34.679,14.3-7.088a53.432,53.432,0,0,0-1.519-7.594c-.886-2.658-2.152-7.341-2.152-7.341s-2.911-5.7-3.544-5.949-7.341-4.683-8.86-4.05-13.543,9.872-13.543,9.872-2.911,4.3-4.05,4.3-.759,5.063-.759,5.063-3.67,14.555-4.556,14.808-14.049-.38-14.428-6.328S449.532,184.964,449.532,184.964Z" transform="translate(-234.274 -105.113)" fill="#d39999"/><path d="M436.722,327.5a28.7,28.7,0,0,1-5.341.658c-2.6.071-4.88-.258-5.442-1.195-1.519-2.531-1.519-7.341-1.519-7.341s6.865,1.585,11.6,3.316l.785.294h0c1.838.714,3.235,1.443,3.544,2.081C440.793,326.166,439.1,326.966,436.722,327.5Z" transform="translate(-241.31 -172.815)" fill="#fdc2cc"/><circle cx="23.162" cy="23.162" r="23.162" transform="translate(221.966 37.958)" opacity="0.1"/><circle cx="23.162" cy="23.162" r="23.162" transform="translate(221.966 36.946)" fill="#fdc2cc"/><path d="M445.67,395.37s6.581,0,9.113.633a50.511,50.511,0,0,0,7.847.759S447.948,396.256,445.67,395.37Z" transform="translate(-251.802 -210.216)" opacity="0.1"/><path d="M446.17,403.37s8.48.633,8.606,1.9S446.17,403.37,446.17,403.37Z" transform="translate(-252.048 -214.166)" opacity="0.1"/><path d="M573.67,372.62s5.189,1.9,5.063,2.531S574.176,374.139,573.67,372.62Z" transform="translate(-315 -198.983)" opacity="0.1"/><path d="M404.193,239.62,400.9,241.9s-1.392,8.1-1.392,10-2.278,15.568-2.278,15.568a10.483,10.483,0,0,0-.506,3.544c.253,1.013-1.013,6.2-1.013,6.2s-4.556,10.5-4.3,11.138,21.643,2.658,21.643,2.658l3.038-28.351Z" transform="translate(-225.006 -133.316)" fill="#d39999"/><path d="M394.583,329.12l-3.164,3.417s-.127,11.138,3.038,12.277,5.189.633,6.2,1.519,6.455,2.531,6.455,2.531,5.949.886,7.72.633-10.378-10-2.4-18.225Z" transform="translate(-225.016 -177.506)" fill="#d39999"/><path d="M584.681,222.12l4.43,4.936s1.9,11.771,1.392,13.416,2.658,30.249,2.658,30.249,3.038,12.4-3.8,14.049a11.947,11.947,0,0,0-1.645,1.772c-.253.506-5.7-.253-5.7-.253l-8.353-54.8Z" transform="translate(-315 -124.676)" fill="#d39999"/><path d="M454.942,292.241s16.58-9.872,19.618-10.378,21.9-9.492,21.9-9.492,9.366,4.81,10.252,8.48-3.924,18.352-3.924,18.352-15.441,10.758-16.327,13.036-14.175,8.986-14.175,10.125-21.01,13.543-30.249,2.658-9.113-14.049-9.113-14.049l23.415-5.442,2.278-10.125Z" transform="translate(-245.506 -149.486)" opacity="0.1"/><path d="M454.942,290.241s16.58-9.872,19.618-10.378,21.9-9.492,21.9-9.492,9.366,4.81,10.252,8.48-3.924,18.352-3.924,18.352-15.441,10.758-16.327,13.036-14.175,8.986-14.175,10.125-21.01,13.543-30.249,2.658-9.113-14.049-9.113-14.049l23.415-5.442,2.278-10.125Z" transform="translate(-245.506 -148.499)" fill="#c4c8e2"/><path d="M407.744,313.567l-.759,6.328-6.019-.44-5.878-.435s-3.417,0-5.569-5.063,4.81-5.822,5.189-5.063c.289.572,7.594,2.957,11.138,4.086Z" transform="translate(-223.874 -167.395)" fill="#fdc2cc"/><path d="M419.309,317.8l-.759,6.328-6.02-.44c.982-1.458,3.038-4.126,4.885-6.475Z" transform="translate(-235.439 -171.625)" opacity="0.1"/><path d="M424.42,319.62s6.865,1.585,11.6,3.316c-.314.506-2.41,3.787-4.642,5.22-2.6.071-4.88-.258-5.442-1.195C424.42,324.43,424.42,319.62,424.42,319.62Z" transform="translate(-241.31 -172.815)" opacity="0.1"/><path d="M448.452,331.023l-.111-.876s-.051-.187-.1-.471a3.135,3.135,0,0,1,.268-2.142c.248-.349.192-.6.03-.775,1.838.714,3.235,1.443,3.544,2.081C452.522,329.691,450.826,330.491,448.452,331.023Z" transform="translate(-253.039 -176.34)" opacity="0.1"/><path d="M439.447,311.6s-6.875,6.88-7.3,8.353-13.416,1.519-13.416,1.519l-.886-7.088s-.051-.187-.1-.471a3.135,3.135,0,0,1,.268-2.142c.633-.886-.719-1.139-.719-1.139s-3.5,5.776-6.455,5.949c0,0-4.091,2.952-4.05,3.544a6.5,6.5,0,0,0-2.025,4c-.04,2.192-2.572,3.083-4.43,2.45s-6.455-1.985-7.933-1.772-6.156,1.6-5.989-2.744c0,0,6.075-4.556,7.594-4.43s5.063-1.645,5.569-3.038,9.113-12.024,9.113-12.024,5.442-5.149,7.634-5.655c0,0,4.389-3.417,11.011,1.772,0,0,9.158,5.65,9.452,6.409.233.6,2.891,3.149,3.114,5.063a1.564,1.564,0,0,1-.456,1.438Z" transform="translate(-222.543 -161.064)" fill="#fdc2cc"/><path d="M448.093,307.12s.673,3.883.339,5.275-1.013,3.8-1.013,3.8S451.511,309.778,448.093,307.12Z" transform="translate(-252.666 -166.643)" opacity="0.1"/><path d="M449.33,324.007s2.111-2.324,2.577-1.731S449.33,324.007,449.33,324.007Z" transform="translate(-253.609 -174.079)" opacity="0.1"/><path d="M591.166,264.578a14.813,14.813,0,0,1-10.753,14.246,14.568,14.568,0,0,1-3.984.567h-.076a14.808,14.808,0,0,1-14.8-14.813,14.108,14.108,0,0,1,.233-2.592,14.783,14.783,0,0,1,13.5-12.15c.354-.03.714-.046,1.073-.046A14.808,14.808,0,0,1,591.166,264.578Z" transform="translate(-309.016 -138.338)" fill="#f8bdc5"/><path d="M612.119,260.447a5.209,5.209,0,0,1,1.2,3.068,5.817,5.817,0,0,0-6.237,4.415q-.694,1.625-1.377,3.25A16.031,16.031,0,0,1,603,275.959a9.354,9.354,0,0,0-1.407,1.63c-.349.633-.506,1.433-1.073,1.858a2.025,2.025,0,0,1-1.914.106c-.623-.233-1.18-.623-1.8-.871a5.738,5.738,0,0,0-1.24-.324h0c-1.853-.273-3.893.127-5.468-.871a3.258,3.258,0,0,1-.506-.415,4.9,4.9,0,0,1-1.291-2.187,2.459,2.459,0,0,1-.121-1.048,2.263,2.263,0,0,1,1.174-1.519c.086-.051.172-.1.263-.147,1.519-.795,3.63-.982,4.425-2.531.759-1.468-.182-3.255-1.337-4.44-.547-.557-1.195-1.19-1.119-1.969.071-.689.683-1.169,1.195-1.63a8.87,8.87,0,0,0,2.774-4.977,3.782,3.782,0,0,0-.03-1.8,4.761,4.761,0,0,0-.643-1.18l-1.64-2.43a6.668,6.668,0,0,0-2.025-2.147c-.683-.41-1.468-.552-2.157-.957a1.711,1.711,0,0,1-.638-.608.653.653,0,0,1-.081-.476c.086-.405.506-.6.927-.719a9.026,9.026,0,0,1,3.351-.319,2.6,2.6,0,0,0,1.083,0,.764.764,0,0,0,.562-.825c1.245-.324,2.425.648,3.336,1.559s2.025,1.909,3.311,1.65c.461-.091.886-.354,1.352-.4s1.043.253,1.013.724-.618.775-.567,1.23a.906.906,0,0,0,.208.425,10.705,10.705,0,0,0,2.061,2.136V249.8c1.013.253,1.382,1.549,1.266,2.6a9.3,9.3,0,0,0-.263,3.129,1.149,1.149,0,0,0,.608.825,1.519,1.519,0,0,0,.795,0c2.324-.329,5.037.289,6.192,2.329l-2.025-.734,2.354,1.286a2.476,2.476,0,0,1,.84.633.841.841,0,0,1,.061.982A3.144,3.144,0,0,0,612.119,260.447Z" transform="translate(-322.157 -136.024)" fill="#585268"/><g transform="translate(266.115 108.968)" opacity="0.1"><path d="M626.635,267a1.519,1.519,0,0,0,.795,0c.228-.03.456-.051.688-.066a8.16,8.16,0,0,0-1.519.046Z" transform="translate(-607.248 -255.762)"/><path d="M636.43,270.26l.871.481-.162-.228Z" transform="translate(-612.102 -257.413)"/><path d="M622.543,256.833v-1.772a1.559,1.559,0,0,0-1.013-.921v1.782a10.878,10.878,0,0,0,1.013.911Z" transform="translate(-604.745 -249.453)"/><path d="M638.43,275.027a3.139,3.139,0,0,1,1.245.506.627.627,0,0,0,.127-.41,3.22,3.22,0,0,0-1.372-.1Z" transform="translate(-613.089 -259.749)"/><path d="M599.829,280.24c-.623-.233-1.18-.623-1.8-.871a5.732,5.732,0,0,0-1.24-.324h0c-1.853-.273-3.893.127-5.468-.871a3.262,3.262,0,0,1-.506-.415,4.9,4.9,0,0,1-1.291-2.187,2.461,2.461,0,0,1-.122-1.048,2.263,2.263,0,0,1,1.175-1.519c.086-.051.172-.1.263-.147,1.544-.795,3.63-.982,4.425-2.531.759-1.468-.182-3.255-1.337-4.44-.547-.557-1.195-1.19-1.119-1.969.071-.689.683-1.169,1.195-1.63a8.87,8.87,0,0,0,2.774-4.977,3.782,3.782,0,0,0-.03-1.8,4.762,4.762,0,0,0-.643-1.18l-1.64-2.43a6.667,6.667,0,0,0-2.025-2.147c-.683-.41-1.468-.552-2.157-.957a1.711,1.711,0,0,1-.638-.608.653.653,0,0,1-.081-.476c.086-.405.532-.6.927-.719a9.359,9.359,0,0,1,2.025-.334,9.113,9.113,0,0,0-3.038.334c-.395.116-.84.314-.926.719a.653.653,0,0,0,.081.476,1.711,1.711,0,0,0,.638.608c.688.405,1.473.547,2.157.957a6.667,6.667,0,0,1,2.025,2.147l1.64,2.43a4.766,4.766,0,0,1,.643,1.18,3.782,3.782,0,0,1,.03,1.8,8.871,8.871,0,0,1-2.774,4.977c-.506.461-1.124.942-1.195,1.63-.076.78.572,1.412,1.119,1.969,1.154,1.185,2.1,2.972,1.337,4.44-.795,1.544-2.881,1.731-4.425,2.531-.091.046-.177.1-.263.147a2.263,2.263,0,0,0-1.174,1.519,2.461,2.461,0,0,0,.121,1.048,4.9,4.9,0,0,0,1.291,2.187,3.262,3.262,0,0,0,.506.415c1.574,1.013,3.615.6,5.468.871h0a5.736,5.736,0,0,1,1.24.324c.623.248,1.18.638,1.8.871a2.389,2.389,0,0,0,1.428.122,3,3,0,0,1-.415-.122Z" transform="translate(-588.375 -245.755)"/><path d="M614.6,250.941a7.44,7.44,0,0,0,.916-.3,1.088,1.088,0,0,0-.577-.106,10.667,10.667,0,0,0-1.266.385,2.111,2.111,0,0,0,.926.02Z" transform="translate(-600.864 -247.672)"/><path d="M599.085,245.793a2.6,2.6,0,0,0,1.083-.025.764.764,0,0,0,.562-.82,2.025,2.025,0,0,0-1.013,0,.764.764,0,0,1-.562.825.809.809,0,0,1-.106.025Z" transform="translate(-593.646 -244.883)"/></g><path d="M545.841,256.716c-1.888,1.412-4.9,2.025-7.67,2.228a41.2,41.2,0,0,1-6.505,0l-4.875-1.833s.395-.785,1.063-1.823c1.331-2.066,3.751-5.139,6.278-5.012,3.8.187,7.786.375,8.166.375S550.078,253.552,545.841,256.716Z" transform="translate(-291.854 -138.576)" fill="#fdc2cc"/><path d="M498.453,62.805c-3.6-.066-7.326-.106-10.632,1.281-6.647,2.749-9.781,10.095-13.8,16.018a45.812,45.812,0,0,1-12.53,12.409c-2.329,1.519-5.032,3.189-5.594,5.923-.6,2.891,1.468,5.569,2.531,8.308,2.253,5.827,0,12.282-1.331,18.387a59.689,59.689,0,0,0-1.2,8.9,12.353,12.353,0,0,0,.268,4.141c1.013,3.574,4.84,6.156,4.87,9.872,0,2.531-1.782,4.921-1.261,7.381.673,3.144,4.491,4.278,7.655,4.82a3.914,3.914,0,0,0,2.3-.071c.506-.243.921-.709,1.438-.967,1.757-.871,3.706.967,5.67.932,2.466-.046,3.853-2.957,3.913-5.422s-.6-5.063.289-7.341c1.18-3.038,4.556-4.48,7.407-6.075,3.154-1.767,6.156-4.318,7.088-7.807a18.264,18.264,0,0,0,.086-6.657c-.354-3.4-.633-6.819-.825-10.232a14.421,14.421,0,0,1,15.421-15.284h.162c2.531.208,5.518.451,7.305-1.392.709-.734,1.159-1.747,2.025-2.253,1.691-.962,4.015.41,5.716-.537,1.331-.744,1.615-2.531,1.407-4.05s-.739-3.038-.456-4.526c.405-2.111,2.324-3.62,3.038-5.65.82-2.314-.066-4.9-1.342-7-4.086-6.738-12.4-12.014-20.2-12.722C504.741,62.891,501.6,62.856,498.453,62.805Z" transform="translate(-256.798 -46.004)" fill="#865a61"/><path d="M527.853,260.15a51.045,51.045,0,0,1,10.318,3.665,41.194,41.194,0,0,1-6.505,0l-4.875-1.833A21.182,21.182,0,0,1,527.853,260.15Z" transform="translate(-291.854 -143.453)" opacity="0.1"/><path d="M582.428,292.566c-1.853-.273-3.893.127-5.468-.871a3.258,3.258,0,0,1-.506-.415h-.076a14.808,14.808,0,0,1-14.828-14.808,14.108,14.108,0,0,1,.233-2.592c5.189,2.9,9.4,5.883,10.206,7.341a30.133,30.133,0,0,0,4.2,5.3c1.412,1.519,2.926,2.977,4.222,4.2C581.183,291.432,581.876,292.065,582.428,292.566Z" transform="translate(-309.016 -150.232)" opacity="0.1"/><path d="M559.838,287.615s-9.239-7.974-11.771-12.53-38.1-23.921-33.54-9.239,20.251,16.074,20.251,16.074,5.063,5.7,5.569,8.48a39.639,39.639,0,0,0,2.278,6.835l8.48,3.8,3.924-.886S564.268,295.082,559.838,287.615Z" transform="translate(-285.6 -143.594)" fill="#fdc2cc"/><path d="M569.42,321.011s14.935,8.48,16.454-11.391l3.8,1.266-3.8,13.416-6.455,4.683S570.432,324.808,569.42,321.011Z" transform="translate(-312.902 -167.878)" opacity="0.1"/><path d="M570.42,322.011s14.935,8.48,16.453-11.391l3.8,1.266-3.8,13.416-6.455,4.683S571.432,325.808,570.42,322.011Z" transform="translate(-313.395 -168.372)" fill="#d39999"/><path d="M567.792,119.278a45.8,45.8,0,0,1,1.276-5.2,13.736,13.736,0,0,0,.152-5.144,7.468,7.468,0,0,0-1.336-3.422c-.506-.633-2.025-2.025-2.911-1.4-.506.359-.643,2.44-.845,3.038a26.231,26.231,0,0,1-2.835,5.7,23.156,23.156,0,0,1-18.732,36.745c-.552,0-1.1-.025-1.64-.066-.506.881-.967,1.772-1.433,2.663a8.272,8.272,0,0,0-1.094,2.952,7.685,7.685,0,0,0,.451,2.936,41.412,41.412,0,0,0,3.878,8.855,13.392,13.392,0,0,1,1.392,2.769c.289.937.339,1.939.714,2.84.84,2.025,3.038,3.038,5.063,3.883a8.271,8.271,0,0,0,3.782.906.881.881,0,0,0,.947-.9,3.427,3.427,0,0,0-1.013-2.911,14.53,14.53,0,0,0,5.316.633.856.856,0,0,0,.921-1.256,22.783,22.783,0,0,0-2.116-5.478c-.921-1.7-2.1-3.681-1.256-5.417a6,6,0,0,1,2.415-2.182c3.114-2.025,5.873-5.326,5.63-9.037-.132-2.025-1.154-3.954-1.215-5.994-.157-4.977,5.2-8.536,6.009-13.451C569.954,127.322,567.4,123.343,567.792,119.278Z" transform="translate(-297.579 -66.334)" fill="#865a61"/><g transform="translate(198.752 33.939)" opacity="0.1"><path d="M460.534,215.888c-.03-3.716-3.853-6.3-4.87-9.872a8.312,8.312,0,0,1-.289-1.726,11.37,11.37,0,0,0,.289,3.751c.932,3.265,4.192,5.706,4.774,8.941A6.08,6.08,0,0,0,460.534,215.888Z" transform="translate(-455.323 -149.811)"/><path d="M480.1,246.3c-1.964.035-3.913-1.8-5.67-.932-.506.258-.911.724-1.438.967a3.914,3.914,0,0,1-2.3.071c-3.154-.542-6.961-1.671-7.645-4.789a5.183,5.183,0,0,0,0,1.995c.673,3.144,4.491,4.278,7.655,4.82a3.914,3.914,0,0,0,2.3-.071c.506-.243.921-.709,1.438-.967,1.757-.871,3.706.967,5.67.932,2.465-.046,3.853-2.957,3.913-5.422,0-.506,0-1.013-.035-1.519C483.731,243.719,482.395,246.25,480.1,246.3Z" transform="translate(-459.085 -168.124)"/><path d="M519.166,196.475c-.942,3.488-3.944,6.04-7.088,7.807-2.85,1.6-6.227,3.038-7.407,6.075a9.685,9.685,0,0,0-.435,4.075,7.168,7.168,0,0,1,.435-2.05c1.18-3.038,4.556-4.48,7.407-6.075,3.154-1.767,6.156-4.318,7.088-7.807a12.8,12.8,0,0,0,.319-4.05A10.411,10.411,0,0,1,519.166,196.475Z" transform="translate(-479.443 -144.953)"/><path d="M560.754,127.155c-1.22-.091-2.491-.375-3.544.213-.886.506-1.337,1.519-2.025,2.253-1.787,1.843-4.749,1.6-7.305,1.392h-.162A14.429,14.429,0,0,0,532.3,146.3v.2a14.413,14.413,0,0,1,15.411-13.462h.162c2.531.208,5.518.451,7.305-1.392.709-.734,1.159-1.747,2.025-2.253,1.013-.587,2.3-.3,3.544-.213a23.076,23.076,0,0,1,1.645,7.594c0-.329.025-.658.025-1.013a23.129,23.129,0,0,0-1.661-8.608Z" transform="translate(-493.312 -111.653)"/><path d="M458.867,146.062a15.638,15.638,0,0,0-.926-6.48c-.8-2.071-2.172-4.1-2.531-6.212-.552,2.86,1.488,5.508,2.531,8.237A14.52,14.52,0,0,1,458.867,146.062Z" transform="translate(-455.316 -114.795)"/><path d="M597.485,116.12a13.16,13.16,0,0,1-.284,1.939,45.785,45.785,0,0,0-1.276,5.2,9.967,9.967,0,0,0,0,1.9,48.649,48.649,0,0,1,1.261-5.063,13.717,13.717,0,0,0,.3-3.979Z" transform="translate(-524.718 -106.278)"/><path d="M593.066,153.64c-.81,4.916-6.166,8.475-6.009,13.451a7,7,0,0,0,.071.8c.638-4.359,5.2-7.726,5.938-12.231a9.365,9.365,0,0,0,.051-2.465A3.258,3.258,0,0,1,593.066,153.64Z" transform="translate(-520.36 -124.586)"/><path d="M598.973,97.617a14.17,14.17,0,0,1-1.823,3.038,7.028,7.028,0,0,1,.506,1.276,10.067,10.067,0,0,0,1.3-2.314,6.074,6.074,0,0,0,.233-2.936,5.346,5.346,0,0,1-.218.937Z" transform="translate(-525.345 -96.68)"/><path d="M581.27,195.39c-.451,3.1-2.876,5.8-5.569,7.564a6.149,6.149,0,0,0-2.415,2.182,3.351,3.351,0,0,0-.137,2.369,2.209,2.209,0,0,1,.137-.344,6,6,0,0,1,2.415-2.182c3.114-2.025,5.873-5.326,5.63-9.037C581.321,195.755,581.3,195.572,581.27,195.39Z" transform="translate(-513.419 -145.417)"/><path d="M553.8,224.523a1.083,1.083,0,0,1-.653.223,8.207,8.207,0,0,1-3.782-.906c-2.025-.84-4.232-1.863-5.063-3.883-.375-.9-.425-1.9-.714-2.84a13.392,13.392,0,0,0-1.392-2.769,41.417,41.417,0,0,1-3.878-8.855,13.625,13.625,0,0,1-.365-1.423c-.035.167-.066.339-.086.506a7.685,7.685,0,0,0,.451,2.936,41.42,41.42,0,0,0,3.878,8.855,13.389,13.389,0,0,1,1.392,2.769c.289.937.339,1.939.714,2.84.84,2.025,3.038,3.038,5.063,3.883a8.27,8.27,0,0,0,3.782.906.881.881,0,0,0,.947-.9,3.357,3.357,0,0,0-.152-1.519A.613.613,0,0,1,553.8,224.523Z" transform="translate(-496.07 -149.702)"/><path d="M573.889,237.866a1.614,1.614,0,0,1-.663.157,14.53,14.53,0,0,1-5.316-.633,3.418,3.418,0,0,1,1.038,2.3,14.472,14.472,0,0,0,4.278.354.856.856,0,0,0,.921-1.256C574.071,238.478,573.98,238.17,573.889,237.866Z" transform="translate(-510.908 -166.154)"/></g><path d="M440.091,260.37s-.506,10.378,1.013,11.138S440.091,260.37,440.091,260.37Z" transform="translate(-249.007 -143.561)" opacity="0.1"/><path d="M496.92,314.37c.506,0,2.531,1.013,2.784,2.152S496.92,314.37,496.92,314.37Z" transform="translate(-277.106 -170.223)" opacity="0.1"/><path d="M494.42,317.62c.506,0,2.531,1.013,2.784,2.152S494.42,317.62,494.42,317.62Z" transform="translate(-275.871 -171.828)" opacity="0.1"/><path d="M503.67,326.62c.506,0,2.531,1.013,2.784,2.152S503.67,326.62,503.67,326.62Z" transform="translate(-280.438 -176.271)" opacity="0.1"/><path d="M470.008,325.336s-6.875,6.88-7.3,8.353-13.416,1.519-13.416,1.519l-.886-7.088s-.051-.187-.1-.471c3.589-.921,15.228-5.22,22.154-3.7a1.564,1.564,0,0,1-.456,1.382Z" transform="translate(-253.105 -174.795)" opacity="0.1"/><path d="M427.785,334.515s6.627-5.863,8.652-5.736,26.705-10.378,28.351,1.392-31.515,12.4-31.515,12.4l-5.063,1.9S423.988,335.275,427.785,334.515Z" transform="translate(-242.189 -175.266)" fill="#fdc2cc"/><path d="M425.006,344.283s3.038-4.217,3.964.926,2.324,11.477,2.324,11.477L424.5,353.31Z" transform="translate(-241.349 -184.189)" fill="#d39999"/><ellipse cx="22.676" cy="3.478" rx="22.676" ry="3.478" transform="translate(442.266 332.922)" fill="#f9a826" opacity="0.1"/><ellipse cx="35.438" cy="5.437" rx="35.438" ry="5.437" transform="translate(365.497 393.76)" fill="#f9a826" opacity="0.1"/><ellipse cx="46.875" cy="7.194" rx="46.875" ry="7.194" transform="translate(450.25 411.241)" fill="#f9a826" opacity="0.1"/><ellipse cx="35.438" cy="5.437" rx="35.438" ry="5.437" transform="translate(0 338.076)" fill="#f9a826" opacity="0.1"/><path d="M945.49,628.21s-3.2,14.935,11.062,16.707l.886-1.661S946.376,632.858,945.49,628.21Z" transform="translate(-498.429 -325.177)" fill="#f9a826"/><path d="M966.267,635.8l-3.316.7-.334.076s-8.849-7.189-8.738-23.232a40.278,40.278,0,0,0,4.227,6.693C961.615,624.68,965.584,630.892,966.267,635.8Z" transform="translate(-502.723 -317.84)" fill="#f9a826"/><path d="M972.87,631.95a2.075,2.075,0,0,1-1.787.233c-8.52-1.99-5.64-29.753-5.64-29.753.471.223,1.013,3.751,2.947,8.313C971.827,618.752,975.619,629.94,972.87,631.95Z" transform="translate(-508.201 -312.449)" fill="#f9a826"/><path d="M1003.651,628.21s.557,14.935-13.715,16.707l-.886-1.661S1002.77,632.858,1003.651,628.21Z" transform="translate(-520.088 -325.177)" fill="#f9a826"/><path d="M995.141,613.35c.106,16.043-11.391,23.232-11.391,23.232l-.334-.076-3.316-.7c.653-4.926,4.653-11.138,8.156-15.76A35.891,35.891,0,0,1,995.141,613.35Z" transform="translate(-515.669 -317.84)" fill="#f9a826"/><path d="M981.368,630.5a5.261,5.261,0,0,1-1.9,1.453h0a3.386,3.386,0,0,1-.694.233c-2.1.506-2.83-1.013-2.708-3.589.2-4.556,3.073-12.5,5.655-18.438a23,23,0,0,1,5.346-7.726C987.058,602.43,986.932,624.047,981.368,630.5Z" transform="translate(-513.672 -312.449)" fill="#f9a826"/><path d="M977.305,583.2s-9.513,33.737-1.326,38.825S979.411,586.187,977.305,583.2Z" transform="translate(-511.993 -302.954)" fill="#f9a826"/><path d="M945.49,628.21s-3.2,14.935,11.062,16.707l.886-1.661S946.376,632.858,945.49,628.21Z" transform="translate(-498.429 -325.177)" opacity="0.1"/><path d="M966.267,635.8l-3.316.7-.334.076s-8.849-7.189-8.738-23.232a40.278,40.278,0,0,0,4.227,6.693C961.615,624.68,965.584,630.892,966.267,635.8Z" transform="translate(-502.723 -317.84)" opacity="0.1"/><path d="M972.87,631.95a2.075,2.075,0,0,1-1.787.233c-8.52-1.99-5.64-29.753-5.64-29.753.471.223,1.013,3.751,2.947,8.313C971.827,618.752,975.619,629.94,972.87,631.95Z" transform="translate(-508.201 -312.449)" opacity="0.1"/><path d="M1003.651,628.21s.557,14.935-13.715,16.707l-.886-1.661S1002.77,632.858,1003.651,628.21Z" transform="translate(-520.088 -325.177)" opacity="0.1"/><path d="M995.141,613.35c.106,16.043-11.391,23.232-11.391,23.232l-.334-.076-3.316-.7c.653-4.926,4.653-11.138,8.156-15.76A35.891,35.891,0,0,1,995.141,613.35Z" transform="translate(-515.669 -317.84)" opacity="0.1"/><path d="M981.368,630.5a5.261,5.261,0,0,1-1.9,1.453h0a3.386,3.386,0,0,1-.694.233c-2.1.506-2.83-1.013-2.708-3.589.2-4.556,3.073-12.5,5.655-18.438a23,23,0,0,1,5.346-7.726C987.058,602.43,986.932,624.047,981.368,630.5Z" transform="translate(-513.672 -312.449)" opacity="0.1"/><path d="M977.305,583.2s-9.513,33.737-1.326,38.825S979.411,586.187,977.305,583.2Z" transform="translate(-511.993 -302.954)" opacity="0.1"/><path d="M945.71,628.21s-1.878,14.935,12.388,16.707l.886-1.661S946.6,632.858,945.71,628.21Z" transform="translate(-498.65 -325.177)" fill="#f9a826"/><path d="M967.624,635.8l-3.316.7-.334.076s-10.176-7.189-10.064-23.232c0,0,2.607,2.795,5.569,6.693C962.961,624.68,966.945,630.892,967.624,635.8Z" transform="translate(-502.738 -317.84)" fill="#f9a826"/><path d="M973.041,642.33l-3.316.7c-3.144-2.759-4.394-9.968-4.845-16.464C968.378,631.207,972.363,637.419,973.041,642.33Z" transform="translate(-508.155 -324.368)" opacity="0.1"/><path d="M974.545,631.95a2.076,2.076,0,0,1-1.787.233c-8.52-1.99-6.966-29.753-6.966-29.753.471.223,2.314,3.751,4.273,8.313C973.5,618.752,977.279,629.94,974.545,631.95Z" transform="translate(-508.55 -312.449)" fill="#f9a826"/><path d="M1004.949,628.21s1.883,14.935-12.388,16.707l-.881-1.661S1004.068,632.858,1004.949,628.21Z" transform="translate(-521.387 -325.177)" fill="#f9a826"/><path d="M996.435,613.35c.106,16.043-10.065,23.232-10.065,23.232l-.334-.076-3.316-.7c.658-4.926,4.653-11.138,8.156-15.76C993.827,616.145,996.435,613.35,996.435,613.35Z" transform="translate(-516.963 -317.84)" fill="#f9a826"/><path d="M990.876,626.57c-.425,6.075-1.519,12.727-4.227,15.846a5.062,5.062,0,0,1-.613.618l-3.316-.7C983.368,637.419,987.373,631.207,990.876,626.57Z" transform="translate(-516.963 -324.368)" opacity="0.1"/><path d="M983.983,630.5a5.219,5.219,0,0,1-1.9,1.453h0a3.544,3.544,0,0,1-.7.233c-2.1.506-2.83-1.013-2.709-3.589.2-4.556,3.073-12.5,5.655-18.438,1.858-4.273,3.544-7.513,4.02-7.726C988.347,602.43,989.552,624.047,983.983,630.5Z" transform="translate(-514.961 -312.449)" fill="#f9a826"/><path d="M978.328,640.077a2.334,2.334,0,0,1-1.347-.43c-4.01-2.5-4.091-11.867-3.134-20.757C977.285,626.879,981.062,638.067,978.328,640.077Z" transform="translate(-512.333 -320.576)" opacity="0.1"/><path d="M984,638.032c-.461,1.013-1.083,1.519-1.9,1.453h0a2.658,2.658,0,0,1-1.144-.43,6.075,6.075,0,0,1-2.263-2.926c.2-4.556,3.073-12.5,5.655-18.438C985.261,625.947,985.565,634.655,984,638.032Z" transform="translate(-514.973 -319.983)" opacity="0.1"/><path d="M978.294,583.2s-8.181,33.737,0,38.825S980.4,586.187,978.294,583.2Z" transform="translate(-512.982 -302.954)" fill="#f9a826"/><path d="M916.917,626.99H882.85v5.64h5.194l.132.663,2.081,10.951h19.805l2.081-10.951.127-.663h4.648Z" transform="translate(-435.896 -309.574)" fill="#4b4770"/><path d="M916.917,626.99H882.85v5.64h5.194l.132.663,2.081,10.951h19.805l2.081-10.951.127-.663h4.648Z" transform="translate(-435.896 -309.574)" opacity="0.1"/><path d="M919.971,633.54l-.567,2.987-2.086,10.95H897.513l-2.081-10.95-.572-2.987Z" transform="translate(-441.825 -312.809)" fill="#4b4770"/><path d="M919.971,633.54l-.567,2.987H895.432l-.572-2.987Z" transform="translate(-441.825 -312.809)" opacity="0.1"/><rect width="34.066" height="5.64" transform="translate(448.281 317.416)" fill="#4b4770"/><path d="M141.078,587.126a8.7,8.7,0,0,0-1.154,2.172c-.071.187-.142.405-.213.613a1.871,1.871,0,0,0-.4-.137,5.6,5.6,0,0,0-1.807-.157c0-.233.03-.506.035-.744.076-2.668-.238-6.384-2.784-4.81-2.44,1.519-.7,4.05.876,5.67.137.142.273.273.405.4-1.438,1.013-1.711,3.407-1.949,5.893s-2.349,5.2-3.751,6.754c-.142.157-.268.3-.395.43a5.114,5.114,0,0,0-4.05-1.048c-.056-.218-.116-.445-.187-.688-1.159-4.116-3.508-11.2-6.516-12.722.127-.157.258-.319.395-.506,1.276-1.671,2.714-4.151.592-4.784s-2.314,2.152-2.2,4.237c0,.258.041.506.061.739a3.108,3.108,0,0,0-2.212,1.073l-.329-.39c-1.721-2.025-4.875-5.245-5.832-2.81-.886,2.263,1.888,5.209,3.843,6.916l.121.106c-1.311,5.326,4.415,9.665,7.5,11.558l.4.248c-4.253,5.007-6.88,14.4-6.88,14.4l11.912,2.126s7.893-6.814,6.88-13.208h.081c7.893-1.585,9.685-10,8.46-14.99l.137-.061a8.961,8.961,0,0,0,3.655-2.759C147.973,587.577,143.346,584.114,141.078,587.126Z" transform="translate(-85.819 -303.038)" fill="#f9a826"/><path d="M141.078,587.126a8.7,8.7,0,0,0-1.154,2.172c-.071.187-.142.405-.213.613a1.871,1.871,0,0,0-.4-.137,5.6,5.6,0,0,0-1.807-.157c0-.233.03-.506.035-.744.076-2.668-.238-6.384-2.784-4.81-2.44,1.519-.7,4.05.876,5.67.137.142.273.273.405.4-1.438,1.013-1.711,3.407-1.949,5.893s-2.349,5.2-3.751,6.754c-.142.157-.268.3-.395.43a5.114,5.114,0,0,0-4.05-1.048c-.056-.218-.116-.445-.187-.688-1.159-4.116-3.508-11.2-6.516-12.722.127-.157.258-.319.395-.506,1.276-1.671,2.714-4.151.592-4.784s-2.314,2.152-2.2,4.237c0,.258.041.506.061.739a3.108,3.108,0,0,0-2.212,1.073l-.329-.39c-1.721-2.025-4.875-5.245-5.832-2.81-.886,2.263,1.888,5.209,3.843,6.916l.121.106c-1.311,5.326,4.415,9.665,7.5,11.558l.4.248c-4.253,5.007-6.88,14.4-6.88,14.4l11.912,2.126s7.893-6.814,6.88-13.208h.081c7.893-1.585,9.685-10,8.46-14.99l.137-.061a8.961,8.961,0,0,0,3.655-2.759C147.973,587.577,143.346,584.114,141.078,587.126Z" transform="translate(-85.819 -303.038)" opacity="0.1"/><path d="M118.081,592.55l-1.392,4.05s-.775-.547-1.752-1.407c-1.954-1.706-4.729-4.653-3.843-6.916.957-2.435,4.111.78,5.832,2.81C117.62,591.923,118.081,592.55,118.081,592.55Z" transform="translate(-86.525 -305.03)" fill="#f9a826"/><path d="M129.271,588.249a19.678,19.678,0,0,1-1.357,1.595,21.367,21.367,0,0,1-.248-2.141c-.116-2.086.106-4.855,2.2-4.237S130.546,586.568,129.271,588.249Z" transform="translate(-94.779 -303.041)" fill="#f9a826"/><path d="M162.432,589.184c-.041,1.342-.172,2.415-.172,2.415a16.912,16.912,0,0,1-1.736-1.554c-1.574-1.63-3.316-4.151-.876-5.67C162.194,582.8,162.508,586.531,162.432,589.184Z" transform="translate(-109.983 -303.349)" fill="#f9a826"/><path d="M176.221,593.168a8.961,8.961,0,0,1-3.655,2.759,9.822,9.822,0,0,1-1.225.445l-1.64-2.3a16.727,16.727,0,0,1,.678-2.238,8.7,8.7,0,0,1,1.154-2.172C173.8,586.647,178.428,590.11,176.221,593.168Z" transform="translate(-115.545 -305.571)" fill="#f9a826"/><path d="M120.84,594.73c.694.81,1.154,1.438,1.154,1.438l-1.392,4.05s-.775-.547-1.752-1.407a7.948,7.948,0,0,1,1.569-3.579C120.556,595.069,120.7,594.892,120.84,594.73Z" transform="translate(-90.439 -308.647)" opacity="0.1"/><path d="M129.295,592.467a19.678,19.678,0,0,1-1.357,1.595,21.371,21.371,0,0,1-.248-2.141A2.764,2.764,0,0,1,129.295,592.467Z" transform="translate(-94.803 -307.26)" opacity="0.1"/><path d="M131.7,609.329l-3.468,1.519s-.754-.364-1.843-1.043c-3.64-2.238-10.956-7.872-6.075-14.515s9,5.27,10.632,11.1C131.437,608.134,131.7,609.329,131.7,609.329Z" transform="translate(-90.359 -307.957)" fill="#f9a826"/><path d="M162.56,595.1a2.855,2.855,0,0,1,1.909-.861c-.041,1.342-.172,2.415-.172,2.415a16.912,16.912,0,0,1-1.736-1.554Z" transform="translate(-112.02 -308.405)" opacity="0.1"/><path d="M172.565,599.176a9.813,9.813,0,0,1-1.225.446l-1.64-2.3a16.727,16.727,0,0,1,.678-2.238C171.436,595.7,172.216,597.237,172.565,599.176Z" transform="translate(-115.545 -308.82)" opacity="0.1"/><path d="M151.59,614.512l-.582.1c-11.609,1.762-3.827-4.5-3.827-4.5s.506-.506,1.23-1.266c1.4-1.549,3.508-4.253,3.751-6.754.365-3.761.785-7.29,5.225-6.252C161.746,596.843,162.581,612.309,151.59,614.512Z" transform="translate(-103.166 -309.105)" fill="#f9a826"/><rect width="22.179" height="5.832" transform="translate(26.027 334.31)" fill="#d4dfec"/><rect width="28.979" height="20.352" transform="translate(22.503 315.35)" fill="#d4dfec"/><rect width="22.179" height="5.832" transform="translate(26.027 334.31)" opacity="0.1"/><rect width="28.979" height="20.352" transform="translate(22.503 315.35)" opacity="0.1"/><rect width="22.179" height="5.832" transform="translate(27.485 334.31)" fill="#d4dfec"/><path d="M138.456,619.13c.506,1.742.754,2.936.754,2.936l-3.468,1.519s-.754-.364-1.843-1.043A8.918,8.918,0,0,1,138.456,619.13Z" transform="translate(-97.869 -320.694)" opacity="0.1"/><path d="M151.59,627.375l-.582.1c-11.609,1.762-3.827-4.5-3.827-4.5s.506-.506,1.23-1.266A7.678,7.678,0,0,1,151.59,627.375Z" transform="translate(-103.166 -321.968)" opacity="0.1"/><path d="M121.1,637.776s6.5-23.288,15.618-16.1-3.706,18.225-3.706,18.225Z" transform="translate(-91.549 -321.271)" fill="#f9a826"/><circle cx="0.729" cy="0.729" r="0.729" transform="translate(32.102 290.26)" opacity="0.1"/><circle cx="0.729" cy="0.729" r="0.729" transform="translate(32.041 293.662)" opacity="0.1"/><circle cx="0.729" cy="0.729" r="0.729" transform="translate(53.188 290.928)" opacity="0.1"/><circle cx="0.729" cy="0.729" r="0.729" transform="translate(36.173 308.364)" opacity="0.1"/><circle cx="0.729" cy="0.729" r="0.729" transform="translate(51.669 296.578)" opacity="0.1"/><circle cx="0.729" cy="0.729" r="0.729" transform="translate(44.136 304.111)" opacity="0.1"/><circle cx="0.729" cy="0.729" r="0.729" transform="translate(34.593 291.718)" opacity="0.1"/><circle cx="0.729" cy="0.729" r="0.729" transform="translate(51.183 293.115)" opacity="0.1"/><circle cx="0.729" cy="0.729" r="0.729" transform="translate(48.692 298.765)" opacity="0.1"/><circle cx="0.729" cy="0.729" r="0.729" transform="translate(41.038 307.817)" opacity="0.1"/><circle cx="0.729" cy="0.729" r="0.729" transform="translate(39.458 304.232)" opacity="0.1"/><circle cx="0.729" cy="0.729" r="0.729" transform="translate(35.686 296.152)" opacity="0.1"/><rect width="22.179" height="2.131" transform="translate(27.485 334.31)" opacity="0.1"/><rect width="28.979" height="20.352" transform="translate(23.961 315.35)" fill="#d4dfec"/><circle cx="0.729" cy="0.729" r="0.729" transform="translate(42.01 311.097)" opacity="0.1"/><circle cx="0.729" cy="0.729" r="0.729" transform="translate(37.636 312.009)" opacity="0.1"/></g></svg>