<svg xmlns="http://www.w3.org/2000/svg" width="22.5" height="24" viewBox="0 0 22.5 24">
  <path id="star-of-life-solid" d="M22.127,15.676,15.755,12l6.372-3.676A.75.75,0,0,0,22.4,7.3L20.9,4.7a.751.751,0,0,0-1.025-.275L13.5,8.1V.75a.75.75,0,0,0-.75-.75h-3A.75.75,0,0,0,9,.75V8.1L2.629,4.426A.751.751,0,0,0,1.6,4.7L.1,7.3A.75.75,0,0,0,.378,8.324L6.749,12,.378,15.676A.75.75,0,0,0,.1,16.7l1.5,2.6a.751.751,0,0,0,1.025.275L9,15.9V23.25a.75.75,0,0,0,.75.75h3a.75.75,0,0,0,.75-.75V15.9l6.372,3.676A.75.75,0,0,0,20.9,19.3l1.5-2.6a.749.749,0,0,0-.275-1.024Z" transform="translate(-0.002)" fill="#513c06"/>
</svg>
